<svg id="Layer_1" data-name="Layer 1" xmlns="http://www.w3.org/2000/svg" viewBox="0 0 218.07 218.07"><defs><style>.cls-1{fill:#fff;}</style></defs><title>icon-climb</title><path class="cls-1" d="M59.81,176.66l-.07,0a2.44,2.44,0,0,1-1.69-3c0-.06,1.68-6,2.5-10,.57-2.72.16-7-.2-10.71-.13-1.33-.25-2.62-.33-3.81-.27-3.95.33-12,4.32-17.11,2-2.56,8.65-4.24,11.42-4.84a2.44,2.44,0,0,1,1,4.76c-3.88.85-7.91,2.29-8.62,3.08-3.08,3.95-3.5,10.74-3.3,13.78.08,1.15.2,2.39.33,3.67.39,4.09.84,8.73.12,12.17-.86,4.12-2.51,10-2.58,10.28A2.43,2.43,0,0,1,59.81,176.66Z" transform="translate(-2.47 -2.13)"/><path class="cls-1" d="M90.57,72.87C102,68.5,103.4,52.05,92.92,45.62a15.2,15.2,0,0,0-23,10.68C68.12,67.79,79.66,77,90.57,72.87Z" transform="translate(-2.47 -2.13)"/><path class="cls-1" d="M132.34,127.33a9.36,9.36,0,0,0-7.26-3.33l-17.3.18c8-4.26,22.87-23.25,29.73-40.3a8.48,8.48,0,0,1-4.23-.75c-7.14,18.39-23.43,36-29.76,39l-2.84-17.27,7.64,1.47a5.62,5.62,0,0,0,6.68-5.8l-1.19-24.2S114.65,68,116.6,64c0,0,0-.1,0-.15a5.51,5.51,0,0,0-2.8-2l-4.47-1.41A5.63,5.63,0,0,0,102,66l1.38,27.92L98.73,93l-1.42-8.66a8.2,8.2,0,0,0-8.69-6.72L72.87,79.08a7.13,7.13,0,0,0-6,4.51l0-.11s-11.09,14.86-8.73,27.73c1.64,8.94,9.36,15.62,13.91,18.87l.66,5c0,.16.08.3.1.45l0,.33h0c.7,4,6.06,7.28,9.21,7.37l38.81-.39,32.28,36.54a9.27,9.27,0,0,0,1.62,1.46c1.81,1.09,5.11.18,2.19-5.32ZM66.43,109c-.35-5.22,1.86-8.17,5.35-10l2.09,19.25C70.93,117.18,68.43,114.19,66.43,109Z" transform="translate(-2.47 -2.13)"/><path class="cls-1" d="M111.5,220.19a109,109,0,1,1,109-109A109.15,109.15,0,0,1,111.5,220.19Zm0-203.52A94.5,94.5,0,1,0,206,111.16,94.6,94.6,0,0,0,111.5,16.67Z" transform="translate(-2.47 -2.13)"/><path class="cls-1" d="M107.28,9.58s2,17.43,11.88,23.5-9.92,20.71-8.85,31.59,20.47,22.49,26.54,28.56,20.24,15.12,21.73,27.16c.65,5.25,4.42,11.37,6.32,18.2,2.64,9.5,9.36,18.4,13.27,24.13,4.08,6,4.56-.67,10.5,14,1.94,4.78,8.36-6.55,8.36-6.55l16.39-44.59L211.9,93.73l-8.59-19.21L188.65,48,173.74,33.58,159.59,23.22l-22-12.13L117.39,7.81Z" transform="translate(-2.47 -2.13)"/></svg>