<svg id="Layer_1" data-name="Layer 1" xmlns="http://www.w3.org/2000/svg" viewBox="0 0 218.07 218.07"><defs><style>.cls-1{fill:#fff;}</style></defs><title>icon-bike</title><path class="cls-1" d="M159.1,115.62c-.19,0-.38,0-.57,0l-2.6-18.31a5.32,5.32,0,0,0-1.15-2.56l.09-.18-.39-.19a4,4,0,0,0-2.61-1.27L117.41,76.43,121.22,71,104.76,59.49l-34,48.77,4.81,3.35-7.29.11.08,5.62a34.1,34.1,0,0,0-4.66-.29,32.91,32.91,0,1,0,32.59,26.61l12.34-5.33L109,162.8l14.92-.23-.46-30.63L134.82,127a32.67,32.67,0,1,0,24.28-11.41ZM110.26,86.7l38,18.42-51.35.77Zm36.14,26.53L121.21,124.1l-13.74-10.29Zm-66.14,4.93-1.35,2.39A33.16,33.16,0,0,0,73,118.27Zm10.68,31.18A26.75,26.75,0,1,1,63.8,123a26.48,26.48,0,0,1,12.1,2.83l-14.09,24.8c-.06.1-.05.21-.11.31a4.54,4.54,0,0,0-.23.74,3.44,3.44,0,0,0-.13.78,2.84,2.84,0,0,0,.06.71,4,4,0,0,0,.17.83c0,.1,0,.2.08.29s.18.23.25.36a3.16,3.16,0,0,0,.5.67,3,3,0,0,0,.59.53,3.42,3.42,0,0,0,.34.29,1.34,1.34,0,0,0,.32.1,3.15,3.15,0,0,0,.75.25,3.36,3.36,0,0,0,.76.13,3.66,3.66,0,0,0,.73-.06,3.79,3.79,0,0,0,.81-.18c.1,0,.2,0,.3-.08l23.57-10.17A26.44,26.44,0,0,1,90.94,149.34Zm-2.63-11-13.52,5.83,7.83-13.74A26.88,26.88,0,0,1,88.31,138.3Zm-2.69-13.21,2.57-4.53,15.09,11.28-9.47,4.08A32.7,32.7,0,0,0,85.62,125.09Zm74.37,50a26.67,26.67,0,0,1-8.91-52l3.58,25.26c.38,2.68,2.55,4.6,4.85,4.27s3.85-2.76,3.47-5.45l-3.62-25.59a26.74,26.74,0,0,1,.63,53.48Z" transform="translate(-2.5 -2.25)"/><circle class="cls-1" cx="118.4" cy="46.73" r="15.75"/><path class="cls-1" d="M126.07,163.68l-14.74.22a4.46,4.46,0,1,0,.13,8.91l14.74-.22a4.46,4.46,0,1,0-.13-8.91Z" transform="translate(-2.5 -2.25)"/><path class="cls-1" d="M111.53,220.31a109,109,0,1,1,109-109A109.15,109.15,0,0,1,111.53,220.31Zm0-203.52A94.5,94.5,0,1,0,206,111.28,94.6,94.6,0,0,0,111.53,16.79Z" transform="translate(-2.5 -2.25)"/></svg>