<svg id="Layer_1" data-name="Layer 1" xmlns="http://www.w3.org/2000/svg" viewBox="0 0 218.07 218.07"><defs><style>.cls-1{fill:#fff;}</style></defs><title>icon-kayak</title><path class="cls-1" d="M48,167l39.86-.27L67.84,187.51a2.57,2.57,0,0,0,.08,3.63,2.58,2.58,0,0,0,3.63-.07L95.1,166.7l66.52-.45A22.15,22.15,0,0,0,173.7,162a77.91,77.91,0,0,0,7.87-7.35c3.1-3,6.63-7.15-1.32-6.86-2.1.09-62.16.43-67.31.45L127,133.66l6.62-6.67,8.5,2.7c3.14,1,6.75-.29,8.07-2.87a4.68,4.68,0,0,0-2.85-6.59l-5.24-1.92,16.33-16.58A9.93,9.93,0,0,0,170.12,100L184,85.85a10,10,0,1,0-14.2-14l-13.89,14.1a9.88,9.88,0,0,0-1.5,12l-17.27,17.87-34.46-12.48c-.45-.26-4.27-1.71-8.09-3.15-4.49-1.69-9.13.24-10.35,4.27L82,111.71,71.66,147.39a4.94,4.94,0,0,0-.22,1.11L31,148.78c-3.74,0-5.29,2.69-3.45,5.95l7,6.44C38.59,164.43,44.3,167,48,167Zm60.46-44a3.42,3.42,0,0,1,4.21-2.33l15.48,4.4-9.87,10.21-13,13-4.27,0Z" transform="translate(-3.89 -1.92)"/><circle class="cls-1" cx="97.21" cy="79.36" r="15.73"/><path class="cls-1" d="M112.92,220A109,109,0,1,1,222,111,109.15,109.15,0,0,1,112.92,220Zm0-203.53a94.5,94.5,0,1,0,94.5,94.5A94.6,94.6,0,0,0,112.92,16.45Z" transform="translate(-3.89 -1.92)"/></svg>