<svg id="Layer_1" data-name="Layer 1" xmlns="http://www.w3.org/2000/svg" viewBox="0 0 218.07 218.07"><defs><style>.cls-1{fill:#fff;}</style></defs><title>icon-ski</title><path class="cls-1" d="M112.42,220.31a109,109,0,1,1,109-109A109.15,109.15,0,0,1,112.42,220.31Zm0-203.52a94.5,94.5,0,1,0,94.49,94.49A94.61,94.61,0,0,0,112.42,16.79Z" transform="translate(-3.39 -2.25)"/><circle class="cls-1" cx="141.21" cy="49.95" r="14.97"/><path class="cls-1" d="M112.05,60.17c6.65-.8,17,2.08,18.12,11.89s-2.94,28.6-2.94,28.6,17.71,8.78,22.2,11.59c9.39,5.86,7.22,12.39-4.82,8.93-19.55-5.62-28.75-8.45-30.74-13.18s-2-14.84-2-14.84l-10.21,5.76-49.51-28s-3.82,3.48-6,3.74a11.47,11.47,0,0,1-5-1l4.24-7.4-6.22-6,7.92,2.3C47,62.6,51,55.73,51,55.73a7.16,7.16,0,0,1,3.59,4,11.6,11.6,0,0,1,.19,5.79l21.31,12S86.13,63.28,112.05,60.17Z" transform="translate(-3.39 -2.25)"/><path class="cls-1" d="M67.08,92.21s40,21.36,45.32,24.63,18.28,12.07,7.79,28.67c-10.26,16.25-21.43,32.31-21.43,32.31L91,175.55l-10-3.78s15.08-24.25,17.73-28.84,1.22-7.93-3.45-10.63c-4.51-2.61-12-5.85-18.79-9.43S58.57,107.36,67.08,92.21Z" transform="translate(-3.39 -2.25)"/><path class="cls-1" d="M158.65,201.48a34.53,34.53,0,0,1-12.57-1.28,6.37,6.37,0,0,1-.61-.23L15.87,145A6.47,6.47,0,1,1,20.93,133L138.54,183l11.62,4.93c1.81.48,12.55,3,16.88-4.66a6.47,6.47,0,0,1,11.26,6.38C173.64,197.87,165.83,200.89,158.65,201.48Z" transform="translate(-3.39 -2.25)"/></svg>