<svg id="Layer_1" data-name="Layer 1" xmlns="http://www.w3.org/2000/svg" viewBox="0 0 218.07 218.07"><defs><style>.cls-1{fill:#fff;}</style></defs><title>icon-hike</title><path class="cls-1" d="M110.58,220.91a109,109,0,1,1,109-109A109.15,109.15,0,0,1,110.58,220.91Zm0-203.52a94.5,94.5,0,1,0,94.5,94.49A94.59,94.59,0,0,0,110.58,17.39Z" transform="translate(-1.55 -2.85)"/><circle class="cls-1" cx="116.08" cy="43.51" r="15.39"/><path class="cls-1" d="M96.35,73.07c.57-3.91,3.6-6.26,5.81-5.64l16.06,4.48c2.2.63,3,5.75,2.34,8L107.33,134.2c-.65,2.23-2,3.34-4.19,2.7l-10.85-2.35c-8.74-7.19-8.68-13.45-6.89-22.1Z" transform="translate(-1.55 -2.85)"/><path class="cls-1" d="M82.57,135.48l-2.75,19.24s-7.07,16.8-11.94,26.68c-3.68,7.48-5.41,12.87-2.88,14.22,3.88,2.06,9.09-2.56,14.56-11.08,9.16-14.29,13.87-21.43,15.64-24.9L98,150.57S84.36,141.57,82.57,135.48Z" transform="translate(-1.55 -2.85)"/><path class="cls-1" d="M131.19,143.44l-21.43-21.28c-3.38-3.41-8.42-1.8-11.84,1.58s-10.1,6.54-6.73,10l27.25,22.95-3,29.4c-.22,7.25.21,11.45,4.81,11.93,4.3.45,6.2-8.49,6.64-10.76,0,0,5.51-28.16,6.18-32.13S134.13,146.44,131.19,143.44Z" transform="translate(-1.55 -2.85)"/><path class="cls-1" d="M157.1,80.35,141,87.94,120.6,73.09a7.25,7.25,0,1,0-8.48,11.75l21.95,15.89c2.06,1.49,5.23,2.27,7.55,1.26,0,0,15.08-9.15,19.12-11.79,4.23-2.77,8.66-6.42,7-9.48C165.45,76.32,161.22,78.36,157.1,80.35Z" transform="translate(-1.55 -2.85)"/><path class="cls-1" d="M156.56,199.28a3.69,3.69,0,0,1-3.7-3.7V72.31a3.7,3.7,0,1,1,7.4,0V195.58A3.7,3.7,0,0,1,156.56,199.28Z" transform="translate(-1.55 -2.85)"/><path class="cls-1" d="M88.78,72.43s-9.63,29.88-11.08,34.63-6.56,8-13.75,5.86-14.66-5.22-13.5-13.63C51.73,90.13,60.39,78,67.89,70.14S92.54,59.61,88.78,72.43Z" transform="translate(-1.55 -2.85)"/></svg>