<svg id="Layer_1" data-name="Layer 1" xmlns="http://www.w3.org/2000/svg" viewBox="0 0 216.08 61.56"><defs><style>.cls-1{fill:#fff;}</style></defs><title>logo</title><path class="cls-1" d="M141.55,58.62c-.73,1-2,1.36-3.85,1.09a5,5,0,0,1-2.73-1.1,3.18,3.18,0,0,1-.76-2.89,3.12,3.12,0,0,1,1.56-2.55,4.86,4.86,0,0,1,2.92-.28c1.84.26,3,1,3.38,2.14l-.85.3a2,2,0,0,0-1.12-1.12,5.77,5.77,0,0,0-1.54-.39,4.31,4.31,0,0,0-2.26.11,2.77,2.77,0,0,0-.6,4.1,4.27,4.27,0,0,0,2.13.76,5.58,5.58,0,0,0,1.59.06,2.1,2.1,0,0,0,1.4-.74Z" transform="translate(-0.42 -1.73)"/><path class="cls-1" d="M151.59,57.72a3.18,3.18,0,0,1-1.4,2.65,6.31,6.31,0,0,1-5.69-.48A3.81,3.81,0,0,1,145,54.4a6.13,6.13,0,0,1,5.68.48A3.16,3.16,0,0,1,151.59,57.72Zm-.88-.07a2.22,2.22,0,0,0-.75-2.14,4.3,4.3,0,0,0-2.17-.63,4.53,4.53,0,0,0-2.25.24,2.79,2.79,0,0,0-.35,4.14,4.21,4.21,0,0,0,2.17.63,4.32,4.32,0,0,0,2.25-.25A2.25,2.25,0,0,0,150.71,57.65Z" transform="translate(-0.42 -1.73)"/><path class="cls-1" d="M153.68,61.25l.15-6.89.88,0-.13,6,5.58.12,0,.93Z" transform="translate(-0.42 -1.73)"/><path class="cls-1" d="M169.85,57.58a3.16,3.16,0,0,1-1,2.81,4.94,4.94,0,0,1-2.81.82,5.11,5.11,0,0,1-2.89-.55,3.83,3.83,0,0,1-.26-5.51,6.22,6.22,0,0,1,5.71-.27A3.2,3.2,0,0,1,169.85,57.58Zm-.88,0a2.23,2.23,0,0,0-1-2,5.8,5.8,0,0,0-4.43.2,2.22,2.22,0,0,0-.83,2.11,2.26,2.26,0,0,0,1,2,4.23,4.23,0,0,0,2.24.34,4.3,4.3,0,0,0,2.19-.55A2.22,2.22,0,0,0,169,57.62Z" transform="translate(-0.42 -1.73)"/><path class="cls-1" d="M178.52,60l-3.15-2.59-2.39.31.38,3-.87.11L171.6,54l3.37-.44a8.72,8.72,0,0,1,2.42,0,1.72,1.72,0,0,1,1.66,1.5c.15,1.16-.68,1.92-2.49,2.27l3.18,2.62Zm-.34-4.93c-.09-.68-1-.9-2.83-.67l-2.75.36.26,2,2.82-.37C177.43,56.2,178.27,55.75,178.18,55.08Z" transform="translate(-0.42 -1.73)"/><path class="cls-1" d="M189,57.92l-1-1.09-4.9,1.09-.41,1.39-1,.21L183.89,52l1-.21L190,57.7Zm-4.41-5.09-1.16,4.07,3.93-.88Z" transform="translate(-0.42 -1.73)"/><path class="cls-1" d="M197.85,51.57a3.17,3.17,0,0,1-.26,3,5,5,0,0,1-2.49,1.55l-3.07,1-2.15-6.55,3.07-1a4.72,4.72,0,0,1,2.93-.22A3.16,3.16,0,0,1,197.85,51.57Zm-.83.27a2.23,2.23,0,0,0-1.53-1.67,4.29,4.29,0,0,0-2.25.27l-2.23.73L192.58,56l2.23-.73a4.25,4.25,0,0,0,2-1.12A2.24,2.24,0,0,0,197,51.84Z" transform="translate(-0.42 -1.73)"/><path class="cls-1" d="M206.88,47.53a3.2,3.2,0,0,1,.1,3,6.33,6.33,0,0,1-5.18,2.4,3.16,3.16,0,0,1-2.23-2,3.18,3.18,0,0,1-.09-3,4.9,4.9,0,0,1,2.29-1.83,4.85,4.85,0,0,1,2.89-.57A3.18,3.18,0,0,1,206.88,47.53Zm-.8.37a2.24,2.24,0,0,0-1.72-1.48,5.81,5.81,0,0,0-4,1.86,2.24,2.24,0,0,0,0,2.27A2.22,2.22,0,0,0,202.09,52a5.76,5.76,0,0,0,4-1.86A2.26,2.26,0,0,0,206.08,47.9Z" transform="translate(-0.42 -1.73)"/><path class="cls-1" d="M26.77,60.78,25,56.1l-.8,5.61-.91.34-4.25-3.74L20.8,63l-.82.3-2.39-6.47.81-.3L23.45,61l.95-6.66.81-.3,2.39,6.47Z" transform="translate(-0.42 -1.73)"/><path class="cls-1" d="M36.12,54.07a3.18,3.18,0,0,1-.27,3,5,5,0,0,1-2.51,1.52,5,5,0,0,1-2.93.23,3.82,3.82,0,0,1-1.68-5.25A4.86,4.86,0,0,1,31.23,52a4.93,4.93,0,0,1,2.93-.21A3.18,3.18,0,0,1,36.12,54.07Zm-.84.27a2.24,2.24,0,0,0-1.52-1.68,4.22,4.22,0,0,0-2.24.26,4.29,4.29,0,0,0-2,1.09,2.78,2.78,0,0,0,1.27,4,4.26,4.26,0,0,0,2.25-.26,4.21,4.21,0,0,0,2-1.1A2.24,2.24,0,0,0,35.28,54.34Z" transform="translate(-0.42 -1.73)"/><path class="cls-1" d="M45.28,55.09l-6.79-3.9L40,56.55l-.85.23-1.83-6.65.83-.22,6.8,3.91-1.48-5.38.85-.23,1.83,6.65Z" transform="translate(-0.42 -1.73)"/><path class="cls-1" d="M50.52,47.71l1.32,5.8-.85.2L49.67,47.9l-3.11.71-.21-.92,7.07-1.61.21.92Z" transform="translate(-0.42 -1.73)"/><path class="cls-1" d="M62.73,51.39l-3.27-2.45-2.37.42.52,2.93-.87.15-1.19-6.79,3.34-.59a8.45,8.45,0,0,1,2.42-.16A1.72,1.72,0,0,1,63,46.33c.21,1.15-.59,1.94-2.39,2.37l3.3,2.47Zm-.56-4.91c-.12-.67-1.07-.85-2.86-.54l-2.73.48.35,2,2.8-.5C61.48,47.64,62.29,47.15,62.17,46.48Z" transform="translate(-0.42 -1.73)"/><path class="cls-1" d="M73.46,46.54a3.19,3.19,0,0,1-.85,2.88,5,5,0,0,1-2.75,1,5.1,5.1,0,0,1-2.92-.35,3.21,3.21,0,0,1-1.48-2.61,3.19,3.19,0,0,1,.85-2.87A6.17,6.17,0,0,1,72,43.94,3.15,3.15,0,0,1,73.46,46.54Zm-.87.1a2.25,2.25,0,0,0-1.16-2,5.9,5.9,0,0,0-4.41.5,2.25,2.25,0,0,0-.69,2.17,2.25,2.25,0,0,0,1.16,2,5.77,5.77,0,0,0,4.41-.5A2.27,2.27,0,0,0,72.59,46.64Z" transform="translate(-0.42 -1.73)"/><path class="cls-1" d="M83.77,47.51a1.77,1.77,0,0,1-1.45,1.79,10.51,10.51,0,0,1-2.49.33,11.58,11.58,0,0,1-2.28-.07,2,2,0,0,1-1.75-1.24l.84-.29c.18.37.71.59,1.58.67a7.12,7.12,0,0,0,.74,0l1.11,0c1.91-.08,2.85-.46,2.82-1.15,0-.49-.51-.79-1.46-.89a5.46,5.46,0,0,0-.75,0l-1.2,0a8.16,8.16,0,0,1-2.39-.17,1.73,1.73,0,0,1-1.5-1.63A1.78,1.78,0,0,1,77,43.07a10.35,10.35,0,0,1,2.49-.33,10.93,10.93,0,0,1,2.3.08,2,2,0,0,1,1.75,1.29l-.85.27c-.17-.39-.69-.62-1.54-.7a7.12,7.12,0,0,0-.74,0l-1.15,0c-1.91.08-2.86.47-2.83,1.15,0,.49.5.78,1.43.88a7.12,7.12,0,0,0,.74,0l1.17,0a8.66,8.66,0,0,1,2.43.16A1.74,1.74,0,0,1,83.77,47.51Z" transform="translate(-0.42 -1.73)"/><path class="cls-1" d="M86.22,49.47l.27-6.89,6.46.25,0,.94-5.58-.22-.08,2.05,5.58.21,0,.94-5.57-.21-.08,2,5.57.22,0,.92Z" transform="translate(-0.42 -1.73)"/><path class="cls-1" d="M203.15,10.78l-.07,0-1.2-2.26a.73.73,0,0,0-.27-.28v0h-.06a.48.48,0,0,0-.39,0l-5.27-.56.24-.89L193.46,6,191.32,14l.78.21-.94.36.28.72a6.32,6.32,0,0,0-.62.18,4.52,4.52,0,1,0,5.82,2.63,4.42,4.42,0,0,0-.34-.69l1.35-1.27,1.2,3.16,1.92-.73-1.49-4,1.25-1.17a4.47,4.47,0,0,0,0,3.2,4.52,4.52,0,1,0,2.63-5.82Zm-7.7-1.47,5.8.61-6.64,2.51Zm5.94,1.75-2.77,2.6-2.27-.7ZM193,14.8l-.06.38a4.22,4.22,0,0,0-.87,0Zm2.85,3.55A3.74,3.74,0,1,1,192.81,16l-.67,3.89s0,0,0,0,0,.07,0,.11a.43.43,0,0,0,0,.11.36.36,0,0,0,0,.09l.06.09,0,0,0,0,.1.07.1,0,.06,0h.16l.1,0,.09,0,.1-.07,0,0L195.67,18A3.73,3.73,0,0,1,195.87,18.35ZM195,17l-1.48,1.39.37-2.15A3.66,3.66,0,0,1,195,17Zm-1-1.59.13-.71,2.48.76-1,1A4.46,4.46,0,0,0,194,15.45Zm12,3a3.69,3.69,0,0,1-3.59-6.34l1.64,3.12a.64.64,0,0,0,.83.33.63.63,0,0,0,.2-.87l-1.67-3.16a3.69,3.69,0,0,1,2.59,6.92Z" transform="translate(-0.42 -1.73)"/><circle class="cls-1" cx="194.64" cy="2.18" r="2.18"/><path class="cls-1" d="M201.11,18.57l-1.91.72a.62.62,0,1,0,.44,1.15l1.9-.72a.61.61,0,1,0-.43-1.15Z" transform="translate(-0.42 -1.73)"/><circle class="cls-1" cx="28.91" cy="5.99" r="2.12"/><path class="cls-1" d="M27.18,11.89c0-.54.31-.94.63-.91l2.29.18c.31,0,.55.69.53,1l-.34,7.68c0,.32-.18.51-.5.48l-1.52,0a2.59,2.59,0,0,1-1.52-2.8Z" transform="translate(-0.42 -1.73)"/><path class="cls-1" d="M27,20.68l.14,2.67s-.51,2.46-.9,3.92c-.3,1.11-.39,1.89,0,2,.58.18,1.16-.59,1.67-1.88.85-2.18,1.3-3.27,1.45-3.78l.13-1.3S27.38,21.46,27,20.68Z" transform="translate(-0.42 -1.73)"/><path class="cls-1" d="M33.75,20.46l-3.46-2.3c-.54-.37-1.18,0-1.55.53s-1.19,1.15-.65,1.53l4.29,2.37.38,4.05c.16,1,.33,1.54,1,1.48s.61-1.31.61-1.63c0,0,0-3.95,0-4.5A1.83,1.83,0,0,0,33.75,20.46Z" transform="translate(-0.42 -1.73)"/><path class="cls-1" d="M35.57,11.26l-2,1.45-3.14-1.46a1,1,0,0,0-.83,1.81L33,14.62a1.13,1.13,0,0,0,1.06,0s1.79-1.64,2.26-2.1,1-1.1.7-1.47C36.59,10.49,36.07,10.88,35.57,11.26Z" transform="translate(-0.42 -1.73)"/><path class="cls-1" d="M38.66,27.33a.51.51,0,0,1-.59-.41L34.78,10.29a.51.51,0,0,1,.4-.6.5.5,0,0,1,.6.4l3.29,16.64A.52.52,0,0,1,38.66,27.33Z" transform="translate(-0.42 -1.73)"/><path class="cls-1" d="M26.14,12s-.51,4.29-.58,5a1.4,1.4,0,0,1-1.7,1.16c-1-.11-2.11-.32-2.18-1.48a8.87,8.87,0,0,1,1.58-4.4C24.06,11,26.3,10.18,26.14,12Z" transform="translate(-0.42 -1.73)"/><circle class="cls-1" cx="124.74" cy="5.68" r="2.06"/><path class="cls-1" d="M120.69,8.51a2.12,2.12,0,0,1,2.49,1.63,16.46,16.46,0,0,1-.41,3.94s2.44,1.21,3.06,1.59c1.29.81,1,1.71-.67,1.23-2.69-.77-4-1.16-4.22-1.81a6.93,6.93,0,0,1-.27-2l-1.41.79L112.45,10a2.26,2.26,0,0,1-.82.51,1.5,1.5,0,0,1-.69-.14l.58-1-.86-.83,1.09.32s.54-.94.54-.94a1,1,0,0,1,.5.55,1.7,1.7,0,0,1,0,.8l2.93,1.65S117.12,8.94,120.69,8.51Z" transform="translate(-0.42 -1.73)"/><path class="cls-1" d="M114.5,12.92s5.5,2.94,6.23,3.38,2.52,1.67,1.08,3.95-3,4.44-3,4.44l-1.07-.31-1.38-.52s2.07-3.33,2.44-4,.17-1.09-.48-1.46-1.65-.8-2.58-1.3A3,3,0,0,1,114.5,12.92Z" transform="translate(-0.42 -1.73)"/><path class="cls-1" d="M127.66,28.18a4.74,4.74,0,0,1-1.73-.17l-.08,0L107.16,20a.88.88,0,0,1-.48-1.16.9.9,0,0,1,1.17-.48l18.65,7.91c.25.07,1.72.42,2.32-.64a.88.88,0,0,1,1.21-.33.89.89,0,0,1,.34,1.21A3.28,3.28,0,0,1,127.66,28.18Z" transform="translate(-0.42 -1.73)"/><path class="cls-1" d="M147.43,28l6.22,1.22-3.78,2.61a.4.4,0,0,0-.11.56.44.44,0,0,0,.26.17.42.42,0,0,0,.31-.06l4.44-3.06,10.39,2a3.58,3.58,0,0,0,2-.28,12.38,12.38,0,0,0,1.46-.9c.58-.37,1.26-.91,0-1.11l-10.51-2.06,2.65-1.83L162,24.5l1.24.69a1.09,1.09,0,0,0,1.35-.19.75.75,0,0,0-.24-1.12l-.76-.46,3.07-2.07a1.59,1.59,0,0,0,1.88.09l2.61-1.76A1.59,1.59,0,0,0,169.42,17l-2.61,1.76a1.57,1.57,0,0,0-.61,1.82l-3.26,2.24-5-3c-.06,0-.61-.4-1.16-.75a1.22,1.22,0,0,0-1.75.34l-.58,1.07-2.74,5.24a.61.61,0,0,0-.07.17l-6.32-1.24c-.59-.11-.91.26-.73.82l.9,1.23A4,4,0,0,0,147.43,28Zm10.81-5a.56.56,0,0,1,.74-.23L161.25,24l-1.86,1.28L157,26.93l-.67-.13Z" transform="translate(-0.42 -1.73)"/><circle class="cls-1" cx="157.98" cy="14.62" r="2.5"/><rect class="cls-1" x="56.92" y="9.12" width="2.47" height="1.26" transform="translate(-1.05 3.39) rotate(-5.01)"/><rect class="cls-1" x="72.03" y="7.47" width="2.47" height="1.26" transform="translate(-0.87 6.89) rotate(-6.71)"/><path class="cls-1" d="M73,20.14a7.8,7.8,0,0,1-.46-1.85L72,13.34l2.62-.3L75,16.81c.13,0,.39,2,.76,2.91a4.84,4.84,0,0,0-1.84.46A2.59,2.59,0,0,1,73,20.14Z" transform="translate(-0.42 -1.73)"/><path class="cls-1" d="M58.57,22a6.78,6.78,0,0,1,1,0c.57.06,1.13-.28,1.59-.09-.16-1-.26-2.27-.26-2.27l-.31-2.73,1.06.69,9.47-1.08,1.05-.93-.29-2.51,2.22-.25-.39-3.42-1.34.15L71.94,5.7c-.17-1.51-.54-2-2.06-1.84l-9.4,1.07c-1.51.18-1.74,1-1.57,2.49l.42,3.63L58,11.2l.39,3.42,1.77-.2,0,.27L58,14.94l.51,5.89S58.55,21.89,58.57,22ZM72.32,10.47a1.13,1.13,0,1,1-1,1.25A1.14,1.14,0,0,1,72.32,10.47Zm-9.18,1.32,5.7-.65L69.16,14l-5.7.65Zm-2.54-2-.4-3.5L70.35,5.14l.4,3.49ZM59.91,14a1.13,1.13,0,1,1,1-1.25A1.13,1.13,0,0,1,59.91,14Z" transform="translate(-0.42 -1.73)"/><path class="cls-1" d="M2.69,50.1c-.8.52-2.11.14-2.27.25L3,54.61A3.36,3.36,0,0,1,4.4,52.67c.54-.34,2.36-.54,3.33-1.19a9.24,9.24,0,0,0,3.86-4.76v0a.06.06,0,0,0-.09,0l-1.52,1c-.09.06-.16,0-.23-.06a.15.15,0,0,1,0-.17l1-1.56a.1.1,0,0,0,0-.12l-.09,0-.3,0a7,7,0,0,0-.86,0A7.48,7.48,0,0,0,8.13,46a11.39,11.39,0,0,0-1.73.64C4.68,47.56,3.67,49.46,2.69,50.1ZM8.3,47.32A.34.34,0,0,1,8.25,47a.36.36,0,0,1,.16-.25.37.37,0,0,1,.29-.05.36.36,0,0,1,.25.16.38.38,0,0,1-.4.59A.36.36,0,0,1,8.3,47.32Z" transform="translate(-0.42 -1.73)"/><polygon class="cls-1" points="8.21 48.79 8.54 49.98 7.17 50.45 7.46 49.28 8.21 48.79"/><polyline class="cls-1" points="5.5 45.21 4.24 45.42 3.61 46.14 4.08 46.8 5.58 45.33"/><path class="cls-1" d="M18.31,26.05a1.86,1.86,0,0,1,.06.34,1.76,1.76,0,0,1-.06.42,6,6,0,0,1-.4,1l-.67,1.38-.88,1.84c-.29.64-.53,1.23-.72,1.79a2.43,2.43,0,0,0-.13,1.56,2,2,0,0,0,.88,1l.77.46,1,.56.76.4.61.36a4.38,4.38,0,0,1,1.86,2.25l0,.06a3.15,3.15,0,0,1,.17,1,4.47,4.47,0,0,1-.14,1,7,7,0,0,1-.75,1.79,12.29,12.29,0,0,1-.82,1.21.5.5,0,0,1-.17.16.68.68,0,0,1-.19.08.65.65,0,0,1-.39,0,.92.92,0,0,1-.39-.28,1.16,1.16,0,0,1-.25-.4,1.27,1.27,0,0,1-.05-.44.8.8,0,0,1,.2-.44c.21-.27.45-.61.73-1a4,4,0,0,0,.58-1.31,1.57,1.57,0,0,0,.08-.54,1.51,1.51,0,0,0-.08-.48,2.09,2.09,0,0,0-.37-.58,2.66,2.66,0,0,0-.68-.57c-.23-.15-.52-.32-.88-.52l-1.06-.59-.61-.35L15.81,37A3.63,3.63,0,0,1,14,35l0-.06a4.4,4.4,0,0,1,.22-2.83A19.34,19.34,0,0,1,15.07,30c.32-.69.62-1.32.91-1.89l.35-.76.29-.59A1.2,1.2,0,0,1,17,25.63a.68.68,0,0,1,.28-.18.82.82,0,0,1,.66.08A.79.79,0,0,1,18.31,26.05Z" transform="translate(-0.42 -1.73)"/><path class="cls-1" d="M25.51,33.87a.65.65,0,0,1-.44.43l-.35.09-.44.11-.62.15-.63.19c.09.32.21.66.34,1s.25.68.39,1,.26.63.39.91a8.31,8.31,0,0,0,.38.74h0l.07.12a.24.24,0,0,1,0,.08,1,1,0,0,1,0,.58.69.69,0,0,1-.29.39v0a.33.33,0,0,1-.11.08l-.06,0a.73.73,0,0,1-.5,0,.94.94,0,0,1-.46-.48,13.84,13.84,0,0,1-.83-1.75c-.27-.68-.53-1.41-.77-2.2l-.95.29a.59.59,0,0,1-.59-.1,1.1,1.1,0,0,1-.34-.52,1.16,1.16,0,0,1,0-.64.75.75,0,0,1,.43-.48l.4-.12.26-.08.27-.1c-.11-.38-.23-.81-.34-1.29s-.22-1-.32-1.5-.19-1-.28-1.57-.17-1-.22-1.52a.44.44,0,0,1-.17-.25,1.12,1.12,0,0,1,0-.22v0a1.72,1.72,0,0,1,.06-.59,1.3,1.3,0,0,0,0-.15c0-.06,0-.08,0-.05l0-.18,0-.16c0-.07,0-.09,0-.05v0c0-.38.17-.61.44-.69a.62.62,0,0,1,.42,0h0a1.07,1.07,0,0,1,.42.28,1.09,1.09,0,0,1,.28.5l0,.06a1.14,1.14,0,0,1,.06.38,2,2,0,0,1,0,.33v0c0,.42.08.89.16,1.42s.16,1.06.26,1.62.21,1.1.33,1.64.24,1,.37,1.46c.19-.06.43-.12.73-.19s.59-.14.87-.2a2.17,2.17,0,0,1,.89,0c.23,0,.4.25.51.62A1.06,1.06,0,0,1,25.51,33.87Z" transform="translate(-0.42 -1.73)"/><path class="cls-1" d="M35.48,34.55a1.18,1.18,0,0,1,0,.46.88.88,0,0,1-.18.42,8.8,8.8,0,0,1-1,1,4.9,4.9,0,0,1-1.16.73l-.22.08-.19,0a1.49,1.49,0,0,1-.88,0,2,2,0,0,1-.74-.48v0a2.49,2.49,0,0,1-.36-.49,2.28,2.28,0,0,1-.27-.61.15.15,0,0,0-.08.09,4.5,4.5,0,0,0-.39.6l-.46.86-.31.53c-.09.17-.19.33-.28.49a2,2,0,0,1-1.1.94,1.17,1.17,0,0,1-.93-.12,2,2,0,0,1-.83-1.27A4.55,4.55,0,0,1,26,36.13a8.1,8.1,0,0,1,.27-1.26c.13-.42.28-.82.44-1.2s.35-.73.53-1.06.37-.6.54-.84.45-.55.73-.87a2.11,2.11,0,0,1,1-.64,1.7,1.7,0,0,1,.68,0,2.32,2.32,0,0,1,.79.29,1,1,0,0,1,.31.26,1,1,0,0,1,.15.31.92.92,0,0,1,0,.46.93.93,0,0,1-.2.41.7.7,0,0,1-.86.19.62.62,0,0,0-.29-.09.72.72,0,0,0-.29,0,1.83,1.83,0,0,0-.9.78,6.46,6.46,0,0,0-.46.74,9.14,9.14,0,0,0-.45.94,8.8,8.8,0,0,0-.36,1,5.69,5.69,0,0,0-.2,1,1.21,1.21,0,0,0,0,.27,1.24,1.24,0,0,0,.06.29.46.46,0,0,0,.05.15s0,0,0,0,.13-.1.22-.25l.14-.22.41-.74.48-.84c.17-.28.33-.55.5-.8a7.23,7.23,0,0,1,.44-.65v0a1.37,1.37,0,0,1,.71-.52.69.69,0,0,1,.58.08,1,1,0,0,1,.4.65l.08.28c.05.18.1.34.15.47a1.27,1.27,0,0,0,.16.33.88.88,0,0,0,.29.31.46.46,0,0,0,.31,0l.06,0a3.63,3.63,0,0,0,.41-.23,4.84,4.84,0,0,0,.46-.33,5.37,5.37,0,0,0,.45-.35,2.88,2.88,0,0,0,.35-.35.74.74,0,0,1,.32-.21.67.67,0,0,1,.61.16v0A1,1,0,0,1,35.48,34.55Z" transform="translate(-0.42 -1.73)"/><path class="cls-1" d="M41.41,29.9c.05.19.11.4.16.63.14.56.28,1.23.42,2s.28,1.57.41,2.4.25,1.68.34,2.53.17,1.64.21,2.37a1.07,1.07,0,0,1-.12.65.69.69,0,0,1-.42.32h-.17v0a.8.8,0,0,1-.48-.17.91.91,0,0,1-.32-.53,1,1,0,0,1,0-.15.45.45,0,0,1,0-.13,19.48,19.48,0,0,0-.15-2c-.08-.74-.19-1.49-.31-2.24s-.25-1.49-.39-2.21-.27-1.37-.4-1.95l0-.07s0-.06,0-.05a.34.34,0,0,0-.11.05.26.26,0,0,0-.07.11c-.12.24-.28.52-.47.85l-.59,1c-.21.35-.42.69-.64,1s-.42.61-.61.85a2.57,2.57,0,0,1-1.36,1,1.58,1.58,0,0,1-.53,0,1.86,1.86,0,0,1-.56-.21,2.27,2.27,0,0,1-.56-.5,2.74,2.74,0,0,1-.46-1,4.08,4.08,0,0,1-.12-1,8.12,8.12,0,0,1,0-1.11,9.8,9.8,0,0,1,.18-1,6.41,6.41,0,0,1,.22-.77v0a.8.8,0,0,1,.54-.56.72.72,0,0,1,.39,0,1.23,1.23,0,0,1,.36.25.83.83,0,0,1,.21.38,1.25,1.25,0,0,1-.07.69c0,.16-.1.35-.15.56a5,5,0,0,0-.13.69q0,.36-.06.69a2.13,2.13,0,0,0,0,.59.67.67,0,0,0,.11.24l.13.13.08,0H36a1,1,0,0,0,.49-.41,12.32,12.32,0,0,0,.74-1c.25-.39.5-.81.75-1.24s.49-.87.73-1.32.45-.85.64-1.24a1,1,0,0,1,.65-.55.92.92,0,0,1,.37,0,1.09,1.09,0,0,1,.48.26,1.57,1.57,0,0,1,.4.64C41.31,29.55,41.36,29.71,41.41,29.9Z" transform="translate(-0.42 -1.73)"/><path class="cls-1" d="M61.17,28.74a.86.86,0,0,1,.06.23.9.9,0,0,1,0,.46.82.82,0,0,1-.26.41c-.44.35-.85.63-1.22.87a3.76,3.76,0,0,1-1.22.49h-.1a2.65,2.65,0,0,1-1.19,0,2.23,2.23,0,0,1-1.1-.68,3.5,3.5,0,0,1-.61-.87c-.15-.32-.28-.6-.38-.84,0,0,0,0,0-.11-.11-.25-.21-.36-.3-.35a.45.45,0,0,0-.17.1l-.27.22a5.25,5.25,0,0,0-.46.55c-.17.23-.36.48-.55.75s-.37.56-.54.85a7.72,7.72,0,0,0-.45.83,1,1,0,0,1-.72.63.71.71,0,0,1-.57-.14,1.09,1.09,0,0,1-.39-.67c-.12-.48-.23-1-.33-1.47s-.2-1-.28-1.42a27.23,27.23,0,0,1-.44-4.07,8.32,8.32,0,0,1,.5-3.22v0a.75.75,0,0,1,.23-.38.71.71,0,0,1,.34-.16.64.64,0,0,1,.41.05.76.76,0,0,1,.54.62.89.89,0,0,1-.09.6,4,4,0,0,0-.33,1.32,11.16,11.16,0,0,0,0,1.65c0,.58.08,1.19.16,1.81s.18,1.2.28,1.76c0,.14,0,.28.07.41a3.21,3.21,0,0,0,.08.36c.12-.2.25-.41.4-.63s.3-.42.45-.61l.43-.54.36-.41a3.82,3.82,0,0,1,.64-.53,1.77,1.77,0,0,1,.65-.26,1.33,1.33,0,0,1,.52,0,1.58,1.58,0,0,1,.71.41,2.5,2.5,0,0,1,.49.9c.09.27.21.55.34.84a2.57,2.57,0,0,0,.39.64,1.41,1.41,0,0,0,.4.27,1.19,1.19,0,0,0,.61,0A2.48,2.48,0,0,0,59,29.1a11.1,11.1,0,0,0,1.07-.77.63.63,0,0,1,.32-.17.46.46,0,0,1,.39.09,1.05,1.05,0,0,1,.31.32v0A.49.49,0,0,1,61.17,28.74Z" transform="translate(-0.42 -1.73)"/><path class="cls-1" d="M67.54,28.54a1,1,0,0,1-.06.47.64.64,0,0,1-.33.36h0l-.26.15a3.11,3.11,0,0,0-.3.2l-.73.46c-.27.17-.55.33-.86.49a8.39,8.39,0,0,1-1,.41,6.07,6.07,0,0,1-1,.25,3.84,3.84,0,0,1-.82,0A1.79,1.79,0,0,1,61,30.85a2.52,2.52,0,0,1-.84-1.68,2.33,2.33,0,0,1,0-.38,2.29,2.29,0,0,1,0-.37,7.52,7.52,0,0,1,.27-2,11.45,11.45,0,0,1,.56-1.56,5.19,5.19,0,0,1,1.16-1.69h0a2.26,2.26,0,0,1,.5-.32,2.34,2.34,0,0,1,.62-.19,1.26,1.26,0,0,1,.82.15,1.3,1.3,0,0,1,.58.62,2.86,2.86,0,0,1,.27.9,3.88,3.88,0,0,1,0,.95,3.38,3.38,0,0,1-.37,1.22,5.39,5.39,0,0,1-.76,1.12,4.85,4.85,0,0,1-1,.87,4.05,4.05,0,0,1-1.1.52.82.82,0,0,0,.21.46.66.66,0,0,0,.42.17,1.81,1.81,0,0,0,.57,0,4.39,4.39,0,0,0,1.52-.53c.52-.28,1-.55,1.4-.81.15-.08.28-.17.41-.25l.34-.21.09,0,.13,0a.55.55,0,0,1,.39.1,1.21,1.21,0,0,1,.3.33v0A1.17,1.17,0,0,1,67.54,28.54ZM63.4,24.66a.53.53,0,0,0,0-.12.89.89,0,0,0,0-.1s-.07,0-.13,0a.48.48,0,0,0-.18.08l-.16.11h0a1.85,1.85,0,0,0-.37.51,4.81,4.81,0,0,0-.43.85,5,5,0,0,0-.29,1,4.7,4.7,0,0,0,.57-.38,3.71,3.71,0,0,0,.5-.47,2.91,2.91,0,0,0,.38-.56A1.57,1.57,0,0,0,63.4,25v0A2.1,2.1,0,0,0,63.4,24.66Z" transform="translate(-0.42 -1.73)"/><path class="cls-1" d="M72.12,26h-.18a.46.46,0,0,1-.19-.08h0a.7.7,0,0,0-.35-.08h-.1l-.08,0a4.75,4.75,0,0,0-.54.22,5.63,5.63,0,0,0-.64.38c-.22.15-.44.31-.67.5s-.44.36-.63.54a2.08,2.08,0,0,0-.57.78,1.62,1.62,0,0,0-.12.47c0,.14,0,.3,0,.47v0a1,1,0,0,1-.18.67.69.69,0,0,1-.47.25.67.67,0,0,1-.52-.17,1,1,0,0,1-.31-.65c0-.13,0-.26,0-.39s0-.29,0-.45l-.1-.9c0-.3-.06-.59-.08-.86s0-.51,0-.72a.37.37,0,0,1-.17-.3.48.48,0,0,1,.06-.28c.07-.21.13-.43.19-.68v0a.62.62,0,0,1,.21-.41.78.78,0,0,1,.35-.15H67a.54.54,0,0,0,.18,0,1,1,0,0,1,.36.23.74.74,0,0,1,.19.45.11.11,0,0,1,0,.08V25c0,.14,0,.34,0,.57s0,.46,0,.66l0,0,0-.05a.27.27,0,0,1,.08-.07,7,7,0,0,1,.73-.67,10.77,10.77,0,0,1,.89-.61,9.83,9.83,0,0,1,.9-.48,3.13,3.13,0,0,1,.82-.27h.06a1.31,1.31,0,0,1,.6.05,1.88,1.88,0,0,1,.42.19.87.87,0,0,1,.35.62,1.21,1.21,0,0,1-.09.61h0A.64.64,0,0,1,72.12,26Z" transform="translate(-0.42 -1.73)"/><path class="cls-1" d="M80.54,27.52a.82.82,0,0,1-.08.46.65.65,0,0,1-.35.34h0l-.27.14-.31.18-.76.41a9.18,9.18,0,0,1-.89.42,7.57,7.57,0,0,1-1,.35,5.5,5.5,0,0,1-1,.17A3.78,3.78,0,0,1,75,30a1.84,1.84,0,0,1-1.22-.59,2.61,2.61,0,0,1-.72-1.73,2.54,2.54,0,0,1,0-.39c0-.12,0-.24,0-.36a7.6,7.6,0,0,1,.42-2,10,10,0,0,1,.66-1.51,5,5,0,0,1,1.27-1.6h0a2.05,2.05,0,0,1,1.15-.44,1.24,1.24,0,0,1,.81.21,1.28,1.28,0,0,1,.54.65,3,3,0,0,1,.2.92,3.67,3.67,0,0,1,0,.95,3.52,3.52,0,0,1-.45,1.2,5.61,5.61,0,0,1-.84,1.05,4.55,4.55,0,0,1-1.06.8,3.92,3.92,0,0,1-1.13.45.86.86,0,0,0,.18.47.64.64,0,0,0,.41.2,2,2,0,0,0,.56,0,4.34,4.34,0,0,0,1.56-.42l1.45-.71.42-.23a4,4,0,0,1,.36-.18l.1,0,.13,0a.47.47,0,0,1,.37.13,1,1,0,0,1,.28.34v0A1.13,1.13,0,0,1,80.54,27.52Zm-3.86-4.15a.5.5,0,0,0,0-.12l0-.11a.16.16,0,0,0-.13,0,.32.32,0,0,0-.18.06l-.18.1h0a2.45,2.45,0,0,0-.41.48,6.28,6.28,0,0,0-.49.83,5.29,5.29,0,0,0-.36,1,3.28,3.28,0,0,0,.6-.34,3.18,3.18,0,0,0,.53-.44,2.28,2.28,0,0,0,.42-.52,1.63,1.63,0,0,0,.22-.56v0A1.65,1.65,0,0,0,76.68,23.37Z" transform="translate(-0.42 -1.73)"/><path class="cls-1" d="M81.9,29.59a.8.8,0,0,1-.6-.24,1.11,1.11,0,0,1-.29-.77,1,1,0,0,1,.31-.8.6.6,0,0,1,.24-.16l.27-.06a.8.8,0,0,1,.52.18.73.73,0,0,1,.26.36,1.22,1.22,0,0,1,.09.46,1.19,1.19,0,0,1-.06.46.72.72,0,0,1-.24.36A.71.71,0,0,1,81.9,29.59Z" transform="translate(-0.42 -1.73)"/><path class="cls-1" d="M93.07,21.68c-.08.45-.16.95-.24,1.49s-.16,1.1-.22,1.69-.11,1.18-.13,1.77,0,1.17,0,1.74a15.17,15.17,0,0,0,.1,1.68l0,0a.5.5,0,0,1,0,.14v.08a.78.78,0,0,1-.19.5A.75.75,0,0,1,92,31h-.22a.71.71,0,0,1-.45-.2,1,1,0,0,1-.25-.57,16.23,16.23,0,0,1-.12-1.76c0-.61,0-1.23,0-1.86s.08-1.3.15-1.94.15-1.23.23-1.79.17-1.09.26-1.56.17-.89.24-1.23a.92.92,0,0,1,.28-.52.61.61,0,0,1,.41-.13h0c-.64-.17-1.2-.33-1.7-.49a3.52,3.52,0,0,1-1-.48,1,1,0,0,1-.33-.39.93.93,0,0,1-.09-.46,1.07,1.07,0,0,1,.29-.69.86.86,0,0,1,.68-.27.83.83,0,0,1,.37.13,1.05,1.05,0,0,1,.31.28c.43.17.9.33,1.42.48s1,.29,1.59.42l1.58.46c.52.14,1,.3,1.44.46a4,4,0,0,1,1.73,1.17,2.27,2.27,0,0,1,.52,1.48v0a2.19,2.19,0,0,1-.46,1.2,3.65,3.65,0,0,1-1.25,1c-.22.1-.47.21-.76.36l-.92.47-1.08.56-1,.52a.67.67,0,0,1-.33.08.57.57,0,0,1-.41-.19,1,1,0,0,1-.23-.42,1.09,1.09,0,0,1-.07-.4.83.83,0,0,1,.48-.74l1-.49,1-.52c.32-.17.63-.32.91-.48l.75-.38c.39-.21.6-.41.61-.62v0c0-.33-.31-.62-1-.86A13.18,13.18,0,0,0,95,20.11l-1.78-.5-.17,0-.15,0a1.06,1.06,0,0,1,.35.3.7.7,0,0,1,.15.5s0,0,0,.06,0,0,0,.06v0C93.24,20.82,93.16,21.22,93.07,21.68Zm-.26-2.17v0h0v0Z" transform="translate(-0.42 -1.73)"/><path class="cls-1" d="M107.37,28.88a1,1,0,0,1-.21.48,1.07,1.07,0,0,1-.46.33l-.16.06-.16.06v0l-.8.22a8.81,8.81,0,0,1-1,.22c-.33.06-.66.1-1,.13a4.57,4.57,0,0,1-1,0,3,3,0,0,1-1.26-.41,2.46,2.46,0,0,1-.76-.81,3.44,3.44,0,0,1-.41-1.13,7,7,0,0,1-.13-1.43,15.23,15.23,0,0,1,.12-1.7l0-.14a10.27,10.27,0,0,1,.33-1.67q.24-.84.54-1.62a15,15,0,0,1,.67-1.45,10.11,10.11,0,0,1,.72-1.15,5.26,5.26,0,0,1,1.11-1.14,1.46,1.46,0,0,1,1-.33.6.6,0,0,1,.19.06l0,0a1.23,1.23,0,0,1,.78.89,5.59,5.59,0,0,1,.15,2.13,2.18,2.18,0,0,1,0,.25c0,.08,0,.16,0,.26a15.21,15.21,0,0,1-.43,2.11,11,11,0,0,1-.74,2,11.17,11.17,0,0,1-1.12,1.75c-.42.52-.82,1-1.19,1.37l.18.15a1.42,1.42,0,0,0,.23.14l.19,0,.21,0a4.16,4.16,0,0,0,.79,0,7,7,0,0,0,.89-.12c.3-.06.61-.12.91-.21l.88-.25h0a.55.55,0,0,1,.31,0q.49.06.6.69v0A.81.81,0,0,1,107.37,28.88Zm-3.3-9.29a.42.42,0,0,0-.23.12,2.94,2.94,0,0,0-.37.45A6.1,6.1,0,0,0,103,21a11.72,11.72,0,0,0-.51,1.17c-.16.42-.31.87-.44,1.34a9,9,0,0,0-.3,1.38l0,.2a6.48,6.48,0,0,0,0,1.23c.29-.34.58-.69.85-1.06a7.24,7.24,0,0,0,.73-1.2,4.11,4.11,0,0,0,.25-.63c.09-.26.18-.54.26-.84s.17-.62.23-.93a8.27,8.27,0,0,0,.15-.89l0-.25C104.19,20,104.16,19.67,104.07,19.59Z" transform="translate(-0.42 -1.73)"/><path class="cls-1" d="M115.36,31.59a1.1,1.1,0,0,1-.24.4,1,1,0,0,1-.37.26,9.26,9.26,0,0,1-1.4.24,5.12,5.12,0,0,1-1.37,0,1.41,1.41,0,0,1-.22-.06l-.19-.06a1.57,1.57,0,0,1-.76-.46,1.8,1.8,0,0,1-.35-.8v0a2.65,2.65,0,0,1,0-.6,2.83,2.83,0,0,1,.11-.66.15.15,0,0,0-.11,0,5.49,5.49,0,0,0-.66.3l-.86.46-.54.27-.51.26a2.06,2.06,0,0,1-1.43.19,1.16,1.16,0,0,1-.71-.63,2,2,0,0,1,0-1.51,4.59,4.59,0,0,1,.87-1.48,7.19,7.19,0,0,1,.92-.91,11.71,11.71,0,0,1,1-.76c.35-.22.69-.42,1-.59a8.45,8.45,0,0,1,.91-.41c.31-.11.68-.22,1.09-.33a2.13,2.13,0,0,1,1.2,0,1.76,1.76,0,0,1,.58.35,2.13,2.13,0,0,1,.5.67.84.84,0,0,1,.12.38,1.18,1.18,0,0,1,0,.34,1,1,0,0,1-.23.41,1,1,0,0,1-.4.23.7.7,0,0,1-.43,0,.74.74,0,0,1-.39-.31.65.65,0,0,0-.19-.24.85.85,0,0,0-.25-.13,1.84,1.84,0,0,0-1.19.15c-.24.1-.5.22-.79.37s-.59.34-.89.54a10.36,10.36,0,0,0-.86.66,5.1,5.1,0,0,0-.7.69.82.82,0,0,0-.14.23,1.59,1.59,0,0,0-.12.27c0,.09,0,.14,0,.16s0,0,0,0a.47.47,0,0,0,.32-.08l.24-.11.75-.39.86-.44.86-.4c.27-.13.51-.22.72-.3v0a1.43,1.43,0,0,1,.88-.05.69.69,0,0,1,.44.39,1.05,1.05,0,0,1,0,.76l-.09.28c0,.18-.1.34-.13.48a1.29,1.29,0,0,0,0,.36.84.84,0,0,0,.07.41.48.48,0,0,0,.25.19l.07,0,.47,0a5.51,5.51,0,0,0,.57,0c.19,0,.38,0,.56-.06a2.87,2.87,0,0,0,.49-.09.61.61,0,0,1,.38,0,.65.65,0,0,1,.42.46v0A1.06,1.06,0,0,1,115.36,31.59Z" transform="translate(-0.42 -1.73)"/><path class="cls-1" d="M123,30.46c-.05.2-.11.4-.17.63-.16.56-.36,1.21-.62,1.94s-.52,1.5-.82,2.29-.62,1.58-1,2.37-.67,1.51-1,2.17a1,1,0,0,1-.43.5.69.69,0,0,1-.52.07.29.29,0,0,1-.14-.08v0a.75.75,0,0,1-.33-.39.89.89,0,0,1,0-.61c0-.07,0-.11,0-.14l.06-.12c.29-.54.58-1.14.87-1.83s.56-1.38.83-2.1.52-1.42.75-2.12.44-1.32.61-1.88l0-.08s0-.06,0-.07h-.12a.23.23,0,0,0-.12.06l-.82.51-1,.59-1.06.57c-.35.18-.67.33-1,.44a2.49,2.49,0,0,1-1.67.2,1.53,1.53,0,0,1-.48-.23,1.48,1.48,0,0,1-.38-.46,2,2,0,0,1-.24-.71,2.55,2.55,0,0,1,.08-1.1,5,5,0,0,1,.4-.95,8.8,8.8,0,0,1,.59-.94,7.77,7.77,0,0,1,.65-.8,5.77,5.77,0,0,1,.58-.56v0a.81.81,0,0,1,.75-.22.66.66,0,0,1,.33.2,1.2,1.2,0,0,1,.2.39.94.94,0,0,1,0,.44,1.27,1.27,0,0,1-.4.57l-.41.41a4.65,4.65,0,0,0-.45.53,4.91,4.91,0,0,0-.39.58,2.26,2.26,0,0,0-.25.53.6.6,0,0,0,0,.26.56.56,0,0,0,0,.18l.06.06.07,0a1,1,0,0,0,.62-.11c.36-.15.75-.33,1.16-.54s.84-.46,1.27-.71l1.27-.79,1.18-.76a.93.93,0,0,1,.83-.16.77.77,0,0,1,.33.18,1.14,1.14,0,0,1,.29.47,1.49,1.49,0,0,1,0,.74C123.13,30.1,123.09,30.27,123,30.46Z" transform="translate(-0.42 -1.73)"/><path class="cls-1" d="M137.79,36.83a1,1,0,0,1-.2.43.7.7,0,0,1-.43.23h0l-.3.06-.35.09-.83.2a9.79,9.79,0,0,1-1,.19c-.34,0-.69.07-1,.08a5.33,5.33,0,0,1-1.05-.1,4.31,4.31,0,0,1-.79-.23,1.85,1.85,0,0,1-1-.89,2.58,2.58,0,0,1-.25-1.86,2.22,2.22,0,0,1,.09-.37,2.06,2.06,0,0,1,.12-.35,7.78,7.78,0,0,1,.91-1.85,12.34,12.34,0,0,1,1-1.29A5.23,5.23,0,0,1,134.35,30h0a2.34,2.34,0,0,1,.58-.15,2,2,0,0,1,.64,0,1.23,1.23,0,0,1,.73.4,1.28,1.28,0,0,1,.35.77,2.73,2.73,0,0,1,0,.94,4.08,4.08,0,0,1-.27.91,3.58,3.58,0,0,1-.75,1,5.68,5.68,0,0,1-1.07.81,5.28,5.28,0,0,1-1.24.5,3.93,3.93,0,0,1-1.2.14.75.75,0,0,0,.05.5.65.65,0,0,0,.35.3,1.83,1.83,0,0,0,.53.18,4.16,4.16,0,0,0,1.61,0c.58-.1,1.11-.2,1.59-.31l.46-.11.39-.09h.11l.13,0a.51.51,0,0,1,.33.22,1.22,1.22,0,0,1,.18.4v0A1,1,0,0,1,137.79,36.83Zm-2.67-5a.53.53,0,0,0,0-.13c0-.05,0-.08,0-.11a.22.22,0,0,0-.12-.07.68.68,0,0,0-.19,0l-.19.05h0a2.46,2.46,0,0,0-.52.37,5.32,5.32,0,0,0-.68.67,4.48,4.48,0,0,0-.6.87,4,4,0,0,0,.66-.18,3.6,3.6,0,0,0,.63-.29,2.36,2.36,0,0,0,.54-.4,1.73,1.73,0,0,0,.35-.48v0A1.59,1.59,0,0,0,135.12,31.83Z" transform="translate(-0.42 -1.73)"/><path class="cls-1" d="M143.54,35.2a.78.78,0,0,1-.6.28h-.2l-.21,0-.16,0-.16,0c-.24.47-.52,1-.83,1.57s-.62,1.08-.91,1.5c-.56.83-1.09,1.21-1.6,1.13s-.89-.56-1.18-1.45a6.46,6.46,0,0,1-.17-.72,7.81,7.81,0,0,1-.14-.82,11,11,0,0,1-.07-1.54c0-.54,0-1.07.06-1.6a.45.45,0,0,1-.07-.27,1.63,1.63,0,0,1,0-.31c0-.12,0-.2,0-.24s0-.06,0-.06h0s0,0,0,0a.64.64,0,0,0,.05-.11v-.08a1.15,1.15,0,0,1,.39-.62.74.74,0,0,1,.53-.14h0a.69.69,0,0,1,.4.28,1.11,1.11,0,0,1,.14.72q0,.3-.06.72c0,.28,0,.59-.05.91v1a8.31,8.31,0,0,0,.06,1h0c0,.14,0,.3.05.45a2.18,2.18,0,0,0,.1.39v0a1.09,1.09,0,0,0,.15.34l.12,0a1,1,0,0,0,.17-.2,14.92,14.92,0,0,0,.79-1.28c.26-.46.51-.93.74-1.4a1,1,0,0,1-.06-.61,1,1,0,0,1,.73-.85.67.67,0,0,1,.75.18,1.09,1.09,0,0,1,.22.41l.21.06.34.05h.05a.06.06,0,0,1,.06,0,.5.5,0,0,1,.43.31,1,1,0,0,1,.06.58A1.28,1.28,0,0,1,143.54,35.2Z" transform="translate(-0.42 -1.73)"/><path class="cls-1" d="M150.9,38.44a.91.91,0,0,1-.16.44.71.71,0,0,1-.41.27h0l-.29.09-.35.12-.81.27a8.78,8.78,0,0,1-1,.26,8.51,8.51,0,0,1-1,.17,5.36,5.36,0,0,1-1.06,0,3.77,3.77,0,0,1-.8-.17,1.8,1.8,0,0,1-1.1-.79,2.59,2.59,0,0,1-.41-1.83,2.32,2.32,0,0,1,.06-.38,1.9,1.9,0,0,1,.09-.36,7.26,7.26,0,0,1,.76-1.92,11.2,11.2,0,0,1,.91-1.37,5.07,5.07,0,0,1,1.54-1.36h0a1.82,1.82,0,0,1,.57-.2,2.29,2.29,0,0,1,.64,0,1.3,1.3,0,0,1,.76.34,1.35,1.35,0,0,1,.42.74,3.25,3.25,0,0,1,0,.94,4.59,4.59,0,0,1-.2.93,3.66,3.66,0,0,1-.66,1.1,5.47,5.47,0,0,1-2.19,1.5,4.16,4.16,0,0,1-1.19.23.79.79,0,0,0,.09.5.6.6,0,0,0,.37.27,1.78,1.78,0,0,0,.54.14,4.54,4.54,0,0,0,1.61-.14q.85-.22,1.56-.45l.45-.15a2.33,2.33,0,0,1,.39-.11l.1,0h.13a.56.56,0,0,1,.35.19,1.22,1.22,0,0,1,.21.39v0A1.11,1.11,0,0,1,150.9,38.44Zm-3.07-4.76v-.13a.75.75,0,0,0,0-.11.18.18,0,0,0-.13-.06l-.18,0-.19.07h0a2.13,2.13,0,0,0-.48.41,5.79,5.79,0,0,0-.63.72,4.9,4.9,0,0,0-.53.92,5.61,5.61,0,0,0,.65-.23,4.42,4.42,0,0,0,.6-.34,2.67,2.67,0,0,0,.5-.44,1.55,1.55,0,0,0,.31-.51h0A1.94,1.94,0,0,0,147.83,33.68Z" transform="translate(-0.42 -1.73)"/><path class="cls-1" d="M156.16,36.59l-.17,0a.29.29,0,0,1-.18-.11h0a1.15,1.15,0,0,0-.34-.14h-.18a4.43,4.43,0,0,0-.56.12,5.47,5.47,0,0,0-.7.26c-.25.11-.49.24-.75.38s-.49.28-.71.42a2.15,2.15,0,0,0-.7.67,1.45,1.45,0,0,0-.2.45c0,.14-.06.29-.09.46v0a.93.93,0,0,1-.29.62.69.69,0,0,1-.5.18.72.72,0,0,1-.49-.26,1,1,0,0,1-.19-.7c0-.13,0-.26,0-.39l0-.45.06-.91c0-.3.05-.59.08-.86s.06-.5.09-.71a.37.37,0,0,1-.11-.32.59.59,0,0,1,.1-.28,4.62,4.62,0,0,0,.31-.63v0A.59.59,0,0,1,151,34a.6.6,0,0,1,.37-.09l.11,0,.18,0a.85.85,0,0,1,.31.29.74.74,0,0,1,.12.47.24.24,0,0,1,0,.08s0,0,0,.08a5.72,5.72,0,0,0-.12.56c0,.24-.07.45-.09.65l0,0,.05,0A.15.15,0,0,1,152,36a6.42,6.42,0,0,1,.84-.52,8.53,8.53,0,0,1,1-.45,10.27,10.27,0,0,1,1-.33,3.47,3.47,0,0,1,.85-.12h.06a1.39,1.39,0,0,1,.59.16,1.47,1.47,0,0,1,.37.26.85.85,0,0,1,.24.67,1.25,1.25,0,0,1-.19.58h0A.66.66,0,0,1,156.16,36.59Z" transform="translate(-0.42 -1.73)"/><path class="cls-1" d="M165.31,35.62c0,.2,0,.42,0,.65q0,.87-.06,2c0,.77-.11,1.58-.18,2.42s-.16,1.69-.27,2.54-.23,1.63-.36,2.36a1.05,1.05,0,0,1-.28.6.66.66,0,0,1-.47.21.53.53,0,0,1-.17,0v0a.77.77,0,0,1-.42-.28.89.89,0,0,1-.18-.59.58.58,0,0,1,0-.15,1.05,1.05,0,0,1,0-.13c.13-.59.24-1.25.34-2s.17-1.49.23-2.25.11-1.51.14-2.24.07-1.39.08-2v-.08s0-.06,0-.06a.27.27,0,0,0-.12,0,.22.22,0,0,0-.1.09c-.17.2-.39.43-.65.71l-.82.85c-.29.29-.57.56-.86.83s-.56.5-.8.69a2.57,2.57,0,0,1-1.55.65,1.51,1.51,0,0,1-.53-.1,1.61,1.61,0,0,1-.49-.34,2.09,2.09,0,0,1-.43-.62,2.64,2.64,0,0,1-.21-1.07,4.87,4.87,0,0,1,.12-1,9.45,9.45,0,0,1,.32-1.07,9.16,9.16,0,0,1,.4-.94,6,6,0,0,1,.41-.69h0a.79.79,0,0,1,.65-.41.59.59,0,0,1,.38.1,1,1,0,0,1,.29.33.74.74,0,0,1,.12.42,1.34,1.34,0,0,1-.23.65l-.29.51c-.1.2-.2.41-.29.63s-.16.45-.22.67a2.16,2.16,0,0,0-.09.58.67.67,0,0,0,.05.26l.1.15.07,0a.13.13,0,0,0,.08,0,1,1,0,0,0,.57-.27c.31-.24.63-.52,1-.84s.68-.67,1-1,.69-.73,1-1.1l.93-1.06a.89.89,0,0,1,.75-.37.92.92,0,0,1,.36.07,1.22,1.22,0,0,1,.41.38,1.49,1.49,0,0,1,.23.71C165.3,35.26,165.31,35.43,165.31,35.62Z" transform="translate(-0.42 -1.73)"/><path class="cls-1" d="M177.29,39.33a6.14,6.14,0,0,1-1.1.65,3.91,3.91,0,0,1-1.32.35,2.66,2.66,0,0,1-1.09-.11,2.27,2.27,0,0,1-1-.66,2.56,2.56,0,0,1-.41-.53,3.77,3.77,0,0,1-.31-.59h0c-.05,0-.09,0-.14.11l-.48.58c-.17.2-.39.43-.65.68a2.45,2.45,0,0,1-1.52.8,1.83,1.83,0,0,1-1.23-.3,2,2,0,0,1-.63-.68,2.4,2.4,0,0,1-.31-1,6.14,6.14,0,0,1,0-1.42,5.71,5.71,0,0,1,.34-1.31,3.92,3.92,0,0,1,.6-1,1.83,1.83,0,0,1,.81-.57.35.35,0,0,1,.11,0h.26a.25.25,0,0,1,.14,0l0,0a.77.77,0,0,1,.54.25.92.92,0,0,1,.23.55v0a1.14,1.14,0,0,1-.1.53.52.52,0,0,1-.43.26h-.2l-.06,0-.05,0a.88.88,0,0,0-.29.31,2.59,2.59,0,0,0-.24.55,6.5,6.5,0,0,0-.15.72,5.3,5.3,0,0,0,0,.8.57.57,0,0,0,.3.47h0a.57.57,0,0,0,.23,0,1.21,1.21,0,0,0,.35-.09,1.1,1.1,0,0,0,.36-.26,3.77,3.77,0,0,0,.42-.4l.45-.52.44-.54.38-.48a1,1,0,0,1,.69-.45.65.65,0,0,1,.43.11.88.88,0,0,1,.3.36c.08.24.2.54.34.88a2.6,2.6,0,0,0,.44.77,1.13,1.13,0,0,0,.47.31,1.55,1.55,0,0,0,.54.06,2.37,2.37,0,0,0,.86-.24,5.7,5.7,0,0,0,.89-.5h0a2.21,2.21,0,0,0,.87-1,1.57,1.57,0,0,0,0-.47,1.55,1.55,0,0,0-.07-.31,2.12,2.12,0,0,0-.11-.29v0a4.51,4.51,0,0,0-.53-.73q-.3-.36-.6-.69l0,0s0,0,0,0a1,1,0,0,1-.31-.67.89.89,0,0,1,.15-.61.78.78,0,0,1,.57-.37.87.87,0,0,1,.63.2.84.84,0,0,1,.32.27.93.93,0,0,1,.18.45,6.06,6.06,0,0,1,.49.6q.22.33.39.63a3.57,3.57,0,0,1,.34.71,3.39,3.39,0,0,1,.16.74,2.91,2.91,0,0,1,0,.59,2.74,2.74,0,0,1-.13.62A3.82,3.82,0,0,1,177.29,39.33Z" transform="translate(-0.42 -1.73)"/><path class="cls-1" d="M191.12,34.44a.9.9,0,0,1,.06.22,1.07,1.07,0,0,1,0,.47.79.79,0,0,1-.26.42,12.4,12.4,0,0,1-1.18.9,3.64,3.64,0,0,1-1.21.52l-.1,0a2.81,2.81,0,0,1-1.19,0,2.33,2.33,0,0,1-1.12-.65,3.81,3.81,0,0,1-.63-.86c-.17-.31-.3-.59-.41-.82,0,0,0-.05,0-.11-.12-.24-.22-.36-.31-.34a.39.39,0,0,0-.17.11l-.26.22a5.41,5.41,0,0,0-.45.56c-.16.23-.34.49-.52.77s-.36.57-.52.87a7.3,7.3,0,0,0-.42.84,1,1,0,0,1-.7.65.75.75,0,0,1-.58-.12,1.13,1.13,0,0,1-.41-.66c-.13-.49-.26-1-.38-1.46s-.22-1-.32-1.42a27.69,27.69,0,0,1-.55-4,8.19,8.19,0,0,1,.41-3.24l0,0a.75.75,0,0,1,.23-.39.66.66,0,0,1,.33-.17.72.72,0,0,1,.41,0,.8.8,0,0,1,.56.61.89.89,0,0,1-.08.6,4.44,4.44,0,0,0-.29,1.33A13,13,0,0,0,181,31c0,.59.12,1.19.22,1.8s.21,1.21.32,1.76l.09.41a2.11,2.11,0,0,0,.09.36,7.16,7.16,0,0,1,.38-.64l.43-.63c.15-.2.28-.38.42-.55s.24-.31.34-.42a3.55,3.55,0,0,1,.63-.55,1.79,1.79,0,0,1,.64-.28,1.31,1.31,0,0,1,.52,0,1.48,1.48,0,0,1,.72.38,2.71,2.71,0,0,1,.52.89c.1.27.22.54.36.84a2.26,2.26,0,0,0,.41.61,1.17,1.17,0,0,0,.41.26,1.11,1.11,0,0,0,.61,0,2.54,2.54,0,0,0,.84-.37,11.93,11.93,0,0,0,1.05-.79.62.62,0,0,1,.31-.19.49.49,0,0,1,.39.08,1.25,1.25,0,0,1,.33.32v0A.4.4,0,0,1,191.12,34.44Z" transform="translate(-0.42 -1.73)"/><path class="cls-1" d="M197.84,32.61a1.22,1.22,0,0,1,0,.47.68.68,0,0,1-.27.41h0l-.23.19-.27.25-.63.58c-.24.21-.49.42-.77.62a6.52,6.52,0,0,1-.87.57,4.59,4.59,0,0,1-1,.42,4.32,4.32,0,0,1-.8.18,1.8,1.8,0,0,1-1.33-.29,2.54,2.54,0,0,1-1.12-1.5c0-.13-.07-.25-.1-.38a2.25,2.25,0,0,1-.06-.36,7.67,7.67,0,0,1-.08-2.06,11.63,11.63,0,0,1,.28-1.63,5.23,5.23,0,0,1,.85-1.86h0a2.42,2.42,0,0,1,.43-.41,2.22,2.22,0,0,1,.58-.28,1.24,1.24,0,0,1,.83,0A1.34,1.34,0,0,1,194,28a3.28,3.28,0,0,1,.41.84,3.94,3.94,0,0,1,.19.93,3.54,3.54,0,0,1-.15,1.28,5.36,5.36,0,0,1-.56,1.22,5.25,5.25,0,0,1-.84,1,3.91,3.91,0,0,1-1,.7.72.72,0,0,0,.29.41.53.53,0,0,0,.44.1,2,2,0,0,0,.56-.09,4.31,4.31,0,0,0,1.41-.78c.46-.37.87-.72,1.24-1l.36-.32.3-.26.08-.06.13-.05a.53.53,0,0,1,.39,0,1,1,0,0,1,.35.27v0A1.34,1.34,0,0,1,197.84,32.61ZM193.1,29.5a.34.34,0,0,0-.06-.12.35.35,0,0,0-.06-.09s-.07,0-.14,0a.33.33,0,0,0-.15.1l-.15.14h0a2.45,2.45,0,0,0-.29.57A5.28,5.28,0,0,0,192,31a4.57,4.57,0,0,0-.12,1.05,4.42,4.42,0,0,0,.5-.47,3.9,3.9,0,0,0,.42-.56,3,3,0,0,0,.28-.6,1.59,1.59,0,0,0,.07-.6v0A2.67,2.67,0,0,0,193.1,29.5Z" transform="translate(-0.42 -1.73)"/><path class="cls-1" d="M202,28.55l-.18.05a.36.36,0,0,1-.2,0h0a.76.76,0,0,0-.36,0l-.09,0-.07.05a4.33,4.33,0,0,0-.46.35c-.17.16-.34.34-.52.54s-.34.43-.51.66a8.17,8.17,0,0,0-.45.7,2,2,0,0,0-.35.9,1.54,1.54,0,0,0,0,.49c0,.14.07.29.11.45h0a.94.94,0,0,1,0,.68.68.68,0,0,1-.38.38.64.64,0,0,1-.54,0,1,1,0,0,1-.48-.54c-.06-.12-.11-.24-.16-.36s-.11-.28-.17-.42l-.33-.85c-.12-.28-.22-.55-.31-.8s-.16-.48-.22-.69a.4.4,0,0,1-.24-.24.56.56,0,0,1,0-.29c0-.22,0-.45,0-.7v0a.69.69,0,0,1,.1-.45.7.7,0,0,1,.3-.24l.11,0a.58.58,0,0,0,.18,0,.8.8,0,0,1,.4.12.74.74,0,0,1,.31.38.19.19,0,0,1,0,.07s0,.06,0,.08a5.65,5.65,0,0,0,.14.56c.07.23.13.44.2.63a.11.11,0,0,1,0,0,.15.15,0,0,0,0-.07.22.22,0,0,1,.05-.08,6.77,6.77,0,0,1,.53-.84,9.06,9.06,0,0,1,.69-.82,8.16,8.16,0,0,1,.74-.71,3,3,0,0,1,.71-.48l.07,0a1.48,1.48,0,0,1,1,0,.85.85,0,0,1,.5.5,1.17,1.17,0,0,1,.08.6h0A.63.63,0,0,1,202,28.55Z" transform="translate(-0.42 -1.73)"/><path class="cls-1" d="M210.66,26.44a.88.88,0,0,1,.11.45.65.65,0,0,1-.19.46h0l-.19.23a2,2,0,0,0-.22.3c-.16.19-.33.42-.53.67s-.41.5-.64.75-.49.48-.77.71a5.57,5.57,0,0,1-.88.58,4.68,4.68,0,0,1-.76.31,1.87,1.87,0,0,1-1.36-.05,2.67,2.67,0,0,1-1.36-1.3c-.06-.12-.11-.23-.16-.35a3.62,3.62,0,0,1-.13-.35,7.47,7.47,0,0,1-.43-2,11.15,11.15,0,0,1,0-1.64,5.31,5.31,0,0,1,.52-2h0a2.15,2.15,0,0,1,.36-.48,2.17,2.17,0,0,1,.52-.38,1.19,1.19,0,0,1,.82-.13,1.29,1.29,0,0,1,.76.38,2.91,2.91,0,0,1,.55.76,4.34,4.34,0,0,1,.35.88,3.63,3.63,0,0,1,.07,1.28,5.79,5.79,0,0,1-.34,1.3,5.25,5.25,0,0,1-.65,1.16,4.37,4.37,0,0,1-.86.86.81.81,0,0,0,.35.36.61.61,0,0,0,.46,0,1.79,1.79,0,0,0,.53-.19,4.45,4.45,0,0,0,1.25-1c.4-.44.74-.85,1.05-1.23l.3-.38.25-.31.07-.07.11-.07a.51.51,0,0,1,.4,0,1.06,1.06,0,0,1,.39.21v0A.94.94,0,0,1,210.66,26.44Zm-5.2-2.26a.3.3,0,0,0-.07-.1.29.29,0,0,0-.08-.08s-.07,0-.13,0a.43.43,0,0,0-.14.13l-.12.16h0a2.09,2.09,0,0,0-.19.61,5.28,5.28,0,0,0-.11.95,4.13,4.13,0,0,0,.07,1.05,3.78,3.78,0,0,0,.4-.54,4.05,4.05,0,0,0,.32-.62,3.12,3.12,0,0,0,.17-.65,1.5,1.5,0,0,0,0-.6v0A1.59,1.59,0,0,0,205.46,24.18Z" transform="translate(-0.42 -1.73)"/><path class="cls-1" d="M213.3,27a.83.83,0,0,1-.64.1,1.2,1.2,0,0,1-.79-1.36.68.68,0,0,1,.12-.26,1.2,1.2,0,0,1,.21-.19.74.74,0,0,1,.54-.11.79.79,0,0,1,.41.17,1.73,1.73,0,0,1,.31.35,1.46,1.46,0,0,1,.18.43.7.7,0,0,1,0,.43A.72.72,0,0,1,213.3,27Z" transform="translate(-0.42 -1.73)"/><path class="cls-1" d="M116.44,41.62a4.32,4.32,0,0,1-1.26-.27c-2.75-1-3.06-3.15-2.85-4.13a.69.69,0,0,1,.82-.57.78.78,0,0,1,.49.92c0,.16-.19,1.48,2,2.29a1.81,1.81,0,0,0,1.89-.09,4.82,4.82,0,0,0,1-1.32.67.67,0,0,1,.84-.53.8.8,0,0,1,.44,1,3.82,3.82,0,0,1-1.55,2.32A3.23,3.23,0,0,1,116.44,41.62Z" transform="translate(-0.42 -1.73)"/><path class="cls-1" d="M162.11,47.82a3.83,3.83,0,0,1-1.23,0c-2.8-.29-3.59-2.16-3.63-3.11a.67.67,0,0,1,.63-.73.75.75,0,0,1,.67.74c0,.16.18,1.41,2.38,1.64a2,2,0,0,0,1.72-.55,2.53,2.53,0,0,0,.63-1.45.65.65,0,0,1,.66-.69.77.77,0,0,1,.64.79,3.59,3.59,0,0,1-.89,2.5A3.17,3.17,0,0,1,162.11,47.82Z" transform="translate(-0.42 -1.73)"/><polygon class="cls-1" points="32.16 41.13 32.14 41.09 32.14 41.21 32.16 41.13"/><path class="cls-1" d="M32.48,43.14l0,.08,0-.34C32.47,42.7,32.52,43.26,32.48,43.14Z" transform="translate(-0.42 -1.73)"/><path class="cls-1" d="M32.45,43.11c0-.07,0,.09,0,.14C32.41,43.13,32.48,43.28,32.45,43.11Z" transform="translate(-0.42 -1.73)"/><path class="cls-1" d="M29.75,43.7v0A0,0,0,0,0,29.75,43.7Z" transform="translate(-0.42 -1.73)"/><path class="cls-1" d="M29.15,44.36v.12c.09-.24.28,0,.4-.17v0c.36,0,.65-.3,1-.45V44s0-.13,0-.12a.08.08,0,0,1,0,.07c.11.19.2-.17.27,0a.26.26,0,0,0,0-.17,3,3,0,0,0,.81-.41.26.26,0,0,1,0,.15c.19-.37.46-.29.72-.28,0-.08,0-.08,0-.18s-.11.24-.21.1V43c-.06,0,0,.21,0,.12s0-.11,0-.12-.24,0-.31.22c-.05-.17-.12,0-.19-.15,0,.08,0,.07,0,.19-.4,0-.77.23-1.16.29-.13.38-.42,0-.62.17v0a.21.21,0,0,1-.24.13l-.05.16c-.57-.19-1.05.13-1.59.12s-1.18-.09-1.65.51c0,0,0,0,0-.06-.15.11-.33,0-.47.13v0c-.32.38-.82.16-1.11.57a6.54,6.54,0,0,0-1.4.5l0-.06c-.33.25-.8,0-1.14.27-.44,0-.66.64-1.1.63-.35-.22-.39.6-.73.37-.65-.29-1,.22-1.27.72-.48,0-.66.69-1.22.54-.07.32-.52-.07-.69.1l.05.08c-.19-.2,0,.41-.22.09v0c-.13-.16.12.46,0,.26l0,.09c0,.05-.05-.09-.1-.11s.07.16,0,.13c-.19-.36-.08.13-.29-.26,0,0-.11-.14-.1-.25s-.11,0,0,.19a1.3,1.3,0,0,0,.25.47l-.06-.13.11.15c.07,0,.17.17.26.23v0c-.05-.17,0-.1.07-.09l.05.07c.09.14-.08-.34,0-.06a1.07,1.07,0,0,1,.38-.29c0-.11.11,0,0-.22.14.2.27.2.31.17s0,0,0,0c.21.25,0-.31.2,0-.11-.26.16,0,.06-.3a.34.34,0,0,1,.08.14,4.15,4.15,0,0,1,.43-.09c0-.27.27,0,.2-.36.1,0,.26.1.3-.07v0a.41.41,0,0,0,.2-.38c.16.28.18.2.27.27,0-.16.17-.19.22-.36.07.13.06-.1.15.1.14-.52.57-.56,1-.41v0c0-.13,0-.39-.06-.56,0,0,0,.05,0,.06s.17.1.22,0a.15.15,0,0,1,0,.07c0-.11.18.11.18-.08l0,.06v-.1c0,.07.06.17,0,.16.52-.16.95-.66,1.5-.81v.07l.07-.15a.2.2,0,0,1,0,.07c.16.07.24-.17.38-.18s0,.11,0,.14c.05-.22.23.2.16-.21a.57.57,0,0,1,0,.14,1.28,1.28,0,0,1,.8-.3c.14-.41.48-.18.65-.52v.07c.25-.32.64-.14.95-.27.14,0,.22-.11.35-.15l0,.08c.15-.39.54.19.7-.24V45c0-.2.15,0,.07-.29l.07.09c.07-.46.33.13.47-.19v.08c0-.07.1-.13.15-.07s0,0,0,.06c.23.26.34-.11.52-.14v.15c0-.19.23-.07.33-.17v.07l0-.11,0,.14C28.9,44.55,29,44.4,29.15,44.36Z" transform="translate(-0.42 -1.73)"/><path class="cls-1" d="M30.57,43.91Z" transform="translate(-0.42 -1.73)"/><path class="cls-1" d="M17,49.23h0S17,49.23,17,49.23Z" transform="translate(-0.42 -1.73)"/><polygon class="cls-1" points="104.55 33.94 104.53 33.89 104.43 33.97 104.55 33.94"/><path class="cls-1" d="M104.45,35.76s0,.05,0,.07l.34-.2C104.71,35.44,104.5,35.88,104.45,35.76Z" transform="translate(-0.42 -1.73)"/><path class="cls-1" d="M104.37,35.71c-.09-.09-.16,0-.2.07S104.36,35.85,104.37,35.71Z" transform="translate(-0.42 -1.73)"/><path class="cls-1" d="M95.08,34.19h0Z" transform="translate(-0.42 -1.73)"/><path class="cls-1" d="M92.59,34.37l0,.1c.47-.13,1,.11,1.45.08l0,0c1.21.18,2.36.1,3.57.22,0,0,0,0-.05,0a.4.4,0,0,1,.2-.07s0,.05,0,.06c.23.21.76,0,.9.16a.1.1,0,0,0,.09-.14l1.46.15a14.81,14.81,0,0,0,1.48.14s0,.08,0,.14a3.67,3.67,0,0,1,1.28.06c.42.09.83.23,1.24.34,0-.06-.06-.09,0-.15-.25-.15-.54.07-.75-.12l0-.06c-.17-.09-.08.17-.24,0s0-.08,0-.09a2.7,2.7,0,0,0-1.16-.1c-.06-.17-.4-.08-.52-.25-.1,0-.2,0-.26.1-1.3-.36-2.69-.38-4-.61-.68.19-1.4-.24-2.17-.23a0,0,0,0,1,0,0,2.34,2.34,0,0,1-.91,0l-.27.09a36.93,36.93,0,0,0-5.38-.63,19.62,19.62,0,0,0-5.87-.12s0,0,0-.06c-.57,0-1.1-.07-1.65,0v0a14.35,14.35,0,0,1-2.08.14,9.74,9.74,0,0,0-2,.18,33.46,33.46,0,0,0-5,.32V34a12.14,12.14,0,0,1-2,.16,12.14,12.14,0,0,0-2,.23,9.49,9.49,0,0,0-2.07.41,9.32,9.32,0,0,1-2.07.44c-.9-.14-1.89.67-2.74.54a10.65,10.65,0,0,0-4.79,1.11c-1.53.16-2.93.9-4.45.92-.63.36-1.5.07-2.24.32l0,.06c-.32-.15-.53.45-.78.17l0,0c-.19-.13-.24.47-.38.29v.09c-.17.07,0-.09-.19-.09s0,.16-.1.13c-.1-.32-.41.18-.51-.19.09,0-.19-.1,0-.24-.07,0-.36.07-.3.22s0,.35.16.44v-.13c.09.11.06,0,.11.13.23,0,.31.13.49.17v0c.07-.17.25-.12.35-.12l.05,0c.09.13.2-.34.19-.08a13.8,13.8,0,0,1,1.52-.43c0-.11.41-.09.25-.24a.88.88,0,0,0,.73.09s0,0,0,0c.35.21.28-.32.62-.06,0-.24.5,0,.59-.34a.19.19,0,0,1,.06.13c.48-.1,1-.15,1.43-.22.3-.28.86-.1,1.1-.44a1.94,1.94,0,0,0,1-.16l0,0a2.63,2.63,0,0,0,1.1-.45c.17.24.33.15.52.2a11.06,11.06,0,0,1,1.14-.44c.08.11.31-.12.37.05a7.35,7.35,0,0,1,3.68-.68h0c.13-.12.27-.38.41-.53,0,0,0,0,0,.05.22-.08.45.06.66,0,0,0,0,0,0,.07.19-.12.45.06.66-.12l0,0,.14-.1c0,.06,0,.15-.06.15.47-.07.93-.17,1.4-.27s1-.2,1.42-.3a25.56,25.56,0,0,1,2.88-.52l-.06.06.36-.14a.09.09,0,0,1,0,.06A8.47,8.47,0,0,0,72,34.35s-.06.09,0,.12c.33-.2.56.16.71-.19a.1.1,0,0,1,0,.12,11.43,11.43,0,0,1,2.92-.2c.8-.33,1.72-.07,2.56-.34v.06a16,16,0,0,1,3.39-.06c.47,0,.79,0,1.26,0v.08c.8-.28,1.66.3,2.5,0l-.06.1c.14-.16.5.07.46-.21l.15.09a.93.93,0,0,1,.81-.06,1.6,1.6,0,0,0,.91.07l0,.06a.94.94,0,0,1,.53,0s0,0-.06,0c.56.3,1.22.06,1.83.11l-.08.12c.3-.13.83,0,1.22,0l0,.06.2-.07v.12C91.63,34.39,92.11,34.32,92.59,34.37Z" transform="translate(-0.42 -1.73)"/><path class="cls-1" d="M97.64,34.85h0S97.63,34.85,97.64,34.85Z" transform="translate(-0.42 -1.73)"/><path class="cls-1" d="M48.2,39.14h-.07S48.18,39.14,48.2,39.14Z" transform="translate(-0.42 -1.73)"/><polygon class="cls-1" points="154.88 43.45 154.86 43.41 154.82 43.51 154.88 43.45"/><path class="cls-1" d="M155,45.38s0,0,0,.07l.16-.27C155.15,45,155.08,45.49,155,45.38Z" transform="translate(-0.42 -1.73)"/><path class="cls-1" d="M155,45.35c-.05-.07-.08.06-.1.1S155,45.49,155,45.35Z" transform="translate(-0.42 -1.73)"/><path class="cls-1" d="M150,44.88h0S150,44.88,150,44.88Z" transform="translate(-0.42 -1.73)"/><path class="cls-1" d="M148.68,45.15l0,.11c.27-.16.52.07.79,0l0,0a9.48,9.48,0,0,0,1.92,0l0,0s.08-.1.11-.08,0,0,0,.05c.11.19.41-.07.48.08a.13.13,0,0,0,0-.15,8.4,8.4,0,0,0,1.58-.05.21.21,0,0,1,0,.14,2,2,0,0,1,1.36,0c0-.07-.05-.08,0-.15-.13-.11-.27.16-.39,0l0-.07c-.09,0,0,.18-.12.08s0-.09,0-.09c-.21,0-.41-.08-.62.08,0-.16-.21,0-.28-.19,0,.06-.1,0-.13.14-.7-.16-1.44-.08-2.17-.17-.37.25-.73-.16-1.15-.11,0,0,0,0,0,0a.69.69,0,0,1-.49,0l-.15.11a18.34,18.34,0,0,0-2.84-.58,7.14,7.14,0,0,0-3.1-.42s0,0,0-.06c-.31,0-.57-.15-.87-.13v0c-.75.12-1.47-.29-2.21-.15-.83-.16-1.77-.34-2.66-.45v-.06c-.72,0-1.34-.46-2.05-.53-.69-.31-1.56,0-2.23-.38-.38-.38-1.12.06-1.46-.35a3.49,3.49,0,0,0-2.56-.62,4.43,4.43,0,0,0-1.18-.34,2.42,2.42,0,0,1-1.11-.49c-.43.08-.65-.53-1.05-.61l0,.07c0-.26-.43.17-.39-.17h0c0-.19-.32.3-.29.09l0,.07c-.1,0,0-.09,0-.15s-.07.14-.11.07c.13-.32-.25,0-.09-.38,0,0,0-.17.12-.19s-.15-.1-.21,0-.21.26-.18.43l.07-.11c0,.13,0,.07,0,.16s0,.24.11.35h0c.12-.12.17,0,.21,0v.07c0,.15.25-.2.11,0a5.64,5.64,0,0,1,.83.26c.07-.07.21.09.21-.11a.4.4,0,0,0,.26.38s0,0,0,0c.06.32.26-.17.29.19.1-.21.23.16.4-.07a.32.32,0,0,1,0,.14c.25.09.5.26.71.35.24-.13.41.23.66,0,.11.1.28.28.5.22l0,0a.86.86,0,0,0,.67,0c0,.29.08.26.15.37.17-.07.44,0,.68,0,0,.13.19,0,.15.17a2.35,2.35,0,0,1,1.94.58h0a4.48,4.48,0,0,0,.37-.38s0,.05,0,.05c.13,0,.19.19.31.19a.09.09,0,0,1,0,0c.13,0,.19.2.35.09v0l.09,0c0,.06,0,.15-.08.12,1,.29,2.08.26,3.1.5l-.05.05.22-.06a.11.11,0,0,1,0,0c.23.16.53,0,.77.12,0,0-.06.08,0,.12.22-.12.25.27.41,0a.14.14,0,0,1,0,.12,5.11,5.11,0,0,1,1.56.27c.49-.23.92.13,1.41,0l0,.06a6.44,6.44,0,0,1,1.79.29,5.2,5.2,0,0,0,.68.06v.08c.47-.22.84.41,1.33.17l0,.1c.09-.15.25.1.27-.18l.06.1c.36-.31.52.26.92.09l0,.06c.1,0,.22-.05.28,0s0,0,0,0c.26.3.65.06,1,.12l-.06.11c.18-.12.45,0,.66,0l0,.05.11-.07v.12A6.94,6.94,0,0,0,148.68,45.15Z" transform="translate(-0.42 -1.73)"/><path class="cls-1" d="M151.39,45.38h0Z" transform="translate(-0.42 -1.73)"/><path class="cls-1" d="M125.08,40.12l0,0S125.07,40.11,125.08,40.12Z" transform="translate(-0.42 -1.73)"/><polygon class="cls-1" points="216.08 30.4 216.04 30.38 216.04 30.49 216.08 30.4"/><path class="cls-1" d="M216.27,32.49l0,0,.06-.34C216.19,32.11,216.39,32.55,216.27,32.49Z" transform="translate(-0.42 -1.73)"/><path class="cls-1" d="M216.19,32.5c-.12,0-.08.11-.07.16S216.29,32.61,216.19,32.5Z" transform="translate(-0.42 -1.73)"/><path class="cls-1" d="M208.81,35.87l0,0A0,0,0,0,0,208.81,35.87Z" transform="translate(-0.42 -1.73)"/><path class="cls-1" d="M207.06,37.09l0,.1c.28-.32.78-.32,1.13-.56v0A23.88,23.88,0,0,0,211,35.29s0,0,0,.06.05-.14.1-.15,0,0,0,.07c.29.06.54-.37.74-.31a.09.09,0,0,0,0-.15A23.14,23.14,0,0,0,214,33.57a.13.13,0,0,1,.1.1,2.66,2.66,0,0,1,.9-.61c.33-.16.68-.29,1-.42,0-.08-.11,0-.08-.14-.27,0-.29.35-.56.32v-.07c-.16,0,.07.17-.12.16s0-.09-.07-.08c-.28.17-.63.25-.82.53-.15-.11-.33.14-.52.06,0,.09-.13.11-.1.22-1.1.4-2.1,1-3.19,1.5-.37.48-1.16.41-1.72.76,0,0,0,0,0,0a1.83,1.83,0,0,1-.69.37l-.14.19a46.27,46.27,0,0,0-4.44,1.64A18.61,18.61,0,0,0,198.79,40s0,0,0-.06c-.45.23-.93.29-1.34.51v0c-1,.64-2.32.83-3.28,1.47-1.32.41-2.82.87-4.24,1.28v-.06a7.67,7.67,0,0,1-1.71.37,11.07,11.07,0,0,0-1.72.31c-1.21.12-2.38.83-3.61.88-.8-.15-1.67.64-2.42.47a9,9,0,0,0-4.27.83c-1.35,0-2.62.68-4,.54-.58.3-1.32-.07-2,.09l0,.07c-.27-.19-.5.39-.7.08l0,0c-.15-.15-.25.44-.35.25V47c-.16.05,0-.09-.16-.1s0,.15-.1.12c-.06-.34-.37.12-.43-.26.09,0-.15-.13,0-.23-.06,0-.32,0-.27.18s-.09.34.08.45l0-.13c.07.12,0,.06.08.15.21,0,.26.16.42.22v0c.08-.16.24-.09.32-.08l0,.07c.07.13.2-.32.17-.06a9.64,9.64,0,0,1,1.38-.26c.05-.11.36-.05.24-.22a.71.71,0,0,0,.63.17s0,0,0,0c.29.23.26-.3.55,0,0-.24.44,0,.54-.29a.27.27,0,0,1,.05.14c.43-.06.91,0,1.28-.1.28-.25.76,0,1-.35a1.47,1.47,0,0,0,.89-.07l0,0a2,2,0,0,0,1-.38c.15.26.29.18.46.24.21-.16.68-.2,1-.38.07.12.28-.1.33.08a6.14,6.14,0,0,1,3.28-.54h0c.11-.12.23-.37.35-.52a0,0,0,0,1,0,0c.18-.07.4.07.58,0,0,0,0,0,0,.07.17-.12.4.07.59-.11l0,.05.12-.1c0,.06,0,.15,0,.15,1.67-.26,3.31-.91,5-1.25l-.05.07.3-.17a.06.06,0,0,1,0,.06,6.49,6.49,0,0,0,1.24-.34s0,.1,0,.12c.26-.23.55.09.6-.28a.12.12,0,0,1,0,.12c.4-.15.81-.3,1.23-.42s.85-.21,1.27-.33a2.68,2.68,0,0,1,1-.49,3.46,3.46,0,0,0,1-.5l0,.06A15.57,15.57,0,0,1,198,40.63c.39-.12.62-.29,1-.43l0,.06c.53-.51,1.49-.27,2-.81v.11c0-.19.44-.1.28-.34l.15,0c.3-.51.92-.16,1.38-.59v.08a.67.67,0,0,1,.43-.19s0,0,0,.06c.6.06,1-.43,1.47-.62v.13c.17-.23.67-.28,1-.47v.06l.12-.14.06.1C206.34,37.51,206.67,37.26,207.06,37.09Z" transform="translate(-0.42 -1.73)"/><path class="cls-1" d="M211.07,35.27h0S211.06,35.27,211.07,35.27Z" transform="translate(-0.42 -1.73)"/><path class="cls-1" d="M169,47.42h-.06S168.94,47.42,169,47.42Z" transform="translate(-0.42 -1.73)"/><path class="cls-1" d="M106,52.57h0a.33.33,0,0,1-.23-.41s.23-.82.34-1.37a5.66,5.66,0,0,0,0-1.47c0-.19,0-.36,0-.53a3.74,3.74,0,0,1,.59-2.35,3.49,3.49,0,0,1,1.57-.67.34.34,0,1,1,.14.66,3.44,3.44,0,0,0-1.18.42,3.18,3.18,0,0,0-.46,1.9c0,.16,0,.33.05.5a6.79,6.79,0,0,1,0,1.68c-.12.56-.35,1.38-.36,1.41A.34.34,0,0,1,106,52.57Z" transform="translate(-0.42 -1.73)"/><path class="cls-1" d="M110.25,38.29a2.13,2.13,0,0,0,.32-3.75A2.08,2.08,0,0,0,107.41,36,2.11,2.11,0,0,0,110.25,38.29Z" transform="translate(-0.42 -1.73)"/><path class="cls-1" d="M116,45.78a1.33,1.33,0,0,0-1-.46l-2.38,0a12.16,12.16,0,0,0,3.93-5.25A1.13,1.13,0,0,1,116,40,11.16,11.16,0,0,1,112,45.07l-.39-2.38,1,.2a.76.76,0,0,0,.65-.17.8.8,0,0,0,.27-.63l-.16-3.32a6.61,6.61,0,0,1,.38-1.7v0a.78.78,0,0,0-.38-.28l-.62-.19a.77.77,0,0,0-1,.77l.19,3.85-.65-.13-.19-1.19A1.13,1.13,0,0,0,110,39l-2.17.19a1,1,0,0,0-.82.62h0s-1.52,2-1.2,3.81a4.58,4.58,0,0,0,1.91,2.6l.1.68s0,0,0,.06V47h0a1.5,1.5,0,0,0,1.27,1l5.34-.05,4.38,5.19a1,1,0,0,0,.22.2c.15-.38.25-.31.41-.89Zm-9.07-2.53a1.29,1.29,0,0,1,.73-1.37l.29,2.64A1.94,1.94,0,0,1,106.93,43.25Z" transform="translate(-0.42 -1.73)"/><path class="cls-1" d="M41.22,42.71a3.88,3.88,0,0,1-1.15.36c-2.7.44-3.9-1.09-4.16-2a.64.64,0,0,1,.42-.83.7.7,0,0,1,.8.51c0,.14.51,1.25,2.63.9a1.75,1.75,0,0,0,1.51-.94,4,4,0,0,0,.24-1.5.63.63,0,0,1,.46-.8.73.73,0,0,1,.79.56,3.45,3.45,0,0,1-.25,2.54A3.13,3.13,0,0,1,41.22,42.71Z" transform="translate(-0.42 -1.73)"/><path class="cls-1" d="M16.89,42.82s-.45,2.53.24,2.13a7.74,7.74,0,0,0,1.8-2.24,3.12,3.12,0,0,1,.74-.91l1.15-.06a4.59,4.59,0,0,1-1.21,3.1c-.52.62-1.18,1.79-2.39,1.89a1.79,1.79,0,0,1-1.72-2.17A2.63,2.63,0,0,1,16.89,42.82Z" transform="translate(-0.42 -1.73)"/></svg>